<svg xmlns="http://www.w3.org/2000/svg" xmlns:xlink="http://www.w3.org/1999/xlink" width="500" zoomAndPan="magnify" viewBox="0 0 375 225" height="300" preserveAspectRatio="xMidYMid meet" version="1.0"><defs><g/></defs><path fill="#3f5965" d="M 178.484375 219.039062 C 181.546875 218.132812 184.523438 217.085938 187.421875 215.917969 C 137.253906 225.847656 86.851562 196.117188 72 146.109375 C 57.152344 96.101562 83.160156 43.679688 130.613281 24.617188 C 127.546875 25.222656 124.480469 25.96875 121.421875 26.878906 C 68.359375 42.636719 38.117188 98.429688 53.875 151.492188 C 69.632812 204.554688 125.421875 234.796875 178.484375 219.039062 " fill-opacity="1" fill-rule="nonzero"/><path fill="#289db9" d="M 54.300781 193.601562 C 56.964844 195.6875 59.695312 197.621094 62.480469 199.410156 C 23.128906 162.136719 17.914062 100.335938 52.027344 56.828125 C 86.140625 13.324219 147.402344 3.648438 192.988281 32.972656 C 190.578125 30.695312 188.054688 28.5 185.394531 26.414062 C 139.226562 -9.785156 72.457031 -1.703125 36.253906 44.460938 C 0.0546875 90.628906 8.136719 157.402344 54.300781 193.601562 " fill-opacity="1" fill-rule="nonzero"/><path fill="#289db9" d="M 153.085938 188.75 C 125.707031 181.390625 103.1875 164.972656 87.875 143.597656 C 99.945312 170.257812 123.414062 191.5 153.878906 199.6875 C 193.679688 210.386719 234.308594 195.824219 258.761719 165.820312 C 230.328125 189.25 191.371094 199.039062 153.085938 188.75 " fill-opacity="1" fill-rule="nonzero"/><g fill="#3f5965" fill-opacity="1"><g transform="translate(81.314414, 133.975781)"><g><path d="M 0.625 0 L 8.203125 -43.59375 L 21.796875 -43.5625 C 26.847656 -43.539062 30.640625 -42.507812 33.171875 -40.46875 C 35.703125 -38.4375 36.847656 -35.578125 36.609375 -31.890625 C 36.328125 -27.472656 33.785156 -24.25 28.984375 -22.21875 C 30.710938 -21.613281 32.054688 -20.488281 33.015625 -18.84375 C 33.972656 -17.195312 34.382812 -15.253906 34.25 -13.015625 C 33.96875 -8.910156 32.351562 -5.710938 29.40625 -3.421875 C 26.46875 -1.140625 22.453125 0 17.359375 0 Z M 12.71875 -18.984375 L 10.65625 -7.21875 L 17.578125 -7.1875 C 19.734375 -7.1875 21.535156 -7.71875 22.984375 -8.78125 C 24.441406 -9.851562 25.3125 -11.296875 25.59375 -13.109375 C 25.875 -14.910156 25.628906 -16.3125 24.859375 -17.3125 C 24.085938 -18.320312 22.796875 -18.867188 20.984375 -18.953125 Z M 13.796875 -25.328125 L 19.765625 -25.265625 C 21.972656 -25.304688 23.78125 -25.828125 25.1875 -26.828125 C 26.59375 -27.828125 27.4375 -29.210938 27.71875 -30.984375 C 28.21875 -34.492188 26.375 -36.257812 22.1875 -36.28125 L 15.71875 -36.3125 Z M 13.796875 -25.328125 "/></g></g></g><g fill="#3f5965" fill-opacity="1"><g transform="translate(116.689097, 133.975781)"><g><path d="M 9.015625 0 L 0.515625 0 L 8.5 -45.984375 L 16.96875 -45.984375 Z M 9.015625 0 "/></g></g></g><g fill="#3f5965" fill-opacity="1"><g transform="translate(129.881996, 133.975781)"><g><path d="M 20.140625 -3.359375 C 17.753906 -0.660156 14.785156 0.65625 11.234375 0.59375 C 8.117188 0.550781 5.757812 -0.5625 4.15625 -2.75 C 2.5625 -4.945312 1.945312 -7.84375 2.3125 -11.4375 L 5.8125 -32.390625 L 14.25 -32.390625 L 10.6875 -11.34375 C 10.601562 -10.6875 10.59375 -10.066406 10.65625 -9.484375 C 10.851562 -7.492188 11.960938 -6.46875 13.984375 -6.40625 C 16.597656 -6.320312 18.765625 -7.332031 20.484375 -9.4375 L 24.515625 -32.390625 L 33.015625 -32.390625 L 27.390625 0 L 19.515625 0 Z M 20.140625 -3.359375 "/></g></g></g><g fill="#3f5965" fill-opacity="1"><g transform="translate(160.586827, 133.975781)"><g><path d="M 15.484375 0.59375 C 12.648438 0.570312 10.140625 -0.117188 7.953125 -1.484375 C 5.765625 -2.847656 4.128906 -4.722656 3.046875 -7.109375 C 1.972656 -9.492188 1.554688 -12.125 1.796875 -15 L 1.890625 -16.203125 C 2.179688 -19.347656 3.097656 -22.238281 4.640625 -24.875 C 6.179688 -27.507812 8.15625 -29.539062 10.5625 -30.96875 C 12.976562 -32.394531 15.65625 -33.066406 18.59375 -32.984375 C 22.757812 -32.910156 25.914062 -31.378906 28.0625 -28.390625 C 30.207031 -25.410156 31.019531 -21.632812 30.5 -17.0625 L 30.03125 -13.375 L 10.171875 -13.375 C 10.097656 -11.28125 10.609375 -9.601562 11.703125 -8.34375 C 12.804688 -7.09375 14.304688 -6.445312 16.203125 -6.40625 C 19.273438 -6.320312 21.96875 -7.507812 24.28125 -9.96875 L 28.140625 -5.171875 C 26.921875 -3.335938 25.160156 -1.90625 22.859375 -0.875 C 20.566406 0.144531 18.109375 0.632812 15.484375 0.59375 Z M 18.171875 -26.015625 C 16.617188 -26.054688 15.238281 -25.566406 14.03125 -24.546875 C 12.820312 -23.523438 11.738281 -21.757812 10.78125 -19.25 L 22.390625 -19.25 L 22.578125 -20.03125 C 22.691406 -20.820312 22.703125 -21.578125 22.609375 -22.296875 C 22.398438 -23.460938 21.90625 -24.367188 21.125 -25.015625 C 20.351562 -25.660156 19.367188 -25.992188 18.171875 -26.015625 Z M 18.171875 -26.015625 "/></g></g></g><g fill="#289db9" fill-opacity="1"><g transform="translate(188.037254, 132.784915)"><g><path d="M 35.78125 -12.65625 L 46.28125 -43.59375 L 55.234375 -43.59375 L 39.03125 0 L 30.203125 0 L 27.90625 -29.046875 L 16.5 0 L 7.671875 0 L 5.09375 -43.59375 L 13.65625 -43.59375 L 14.515625 -12.8125 L 26.25 -43.59375 L 33.703125 -43.59375 Z M 35.78125 -12.65625 "/></g></g></g><g fill="#289db9" fill-opacity="1"><g transform="translate(237.452166, 132.784915)"><g><path d="M 18.828125 0 C 18.566406 -0.820312 18.457031 -1.800781 18.5 -2.9375 C 16.0625 -0.5 13.304688 0.675781 10.234375 0.59375 C 7.398438 0.550781 5.050781 -0.367188 3.1875 -2.171875 C 1.320312 -3.972656 0.445312 -6.203125 0.5625 -8.859375 C 0.707031 -12.390625 2.191406 -15.097656 5.015625 -16.984375 C 7.835938 -18.867188 11.625 -19.8125 16.375 -19.8125 L 20.328125 -19.765625 L 20.75 -21.703125 C 20.863281 -22.359375 20.894531 -22.988281 20.84375 -23.59375 C 20.738281 -24.53125 20.378906 -25.257812 19.765625 -25.78125 C 19.160156 -26.3125 18.359375 -26.585938 17.359375 -26.609375 C 16.046875 -26.648438 14.929688 -26.328125 14.015625 -25.640625 C 13.097656 -24.953125 12.507812 -23.957031 12.25 -22.65625 L 3.765625 -22.640625 C 3.910156 -25.722656 5.332031 -28.226562 8.03125 -30.15625 C 10.738281 -32.082031 14.078125 -33.023438 18.046875 -32.984375 C 21.722656 -32.910156 24.597656 -31.820312 26.671875 -29.71875 C 28.742188 -27.613281 29.613281 -24.898438 29.28125 -21.578125 L 26.796875 -6.078125 L 26.640625 -4.15625 C 26.597656 -2.738281 26.769531 -1.539062 27.15625 -0.5625 L 27.125 0 Z M 12.328125 -5.953125 C 14.765625 -5.878906 16.894531 -6.9375 18.71875 -9.125 L 19.765625 -14.734375 L 16.828125 -14.765625 C 13.710938 -14.679688 11.46875 -13.734375 10.09375 -11.921875 C 9.59375 -11.253906 9.28125 -10.441406 9.15625 -9.484375 C 9 -8.410156 9.222656 -7.554688 9.828125 -6.921875 C 10.441406 -6.296875 11.273438 -5.972656 12.328125 -5.953125 Z M 12.328125 -5.953125 "/></g></g></g><g fill="#289db9" fill-opacity="1"><g transform="translate(266.750521, 132.784915)"><g><path d="M 13.71875 -10.6875 L 22.9375 -32.390625 L 32.03125 -32.390625 L 16.375 0 L 8.296875 0 L 2.75 -32.390625 L 11.3125 -32.390625 Z M 13.71875 -10.6875 "/></g></g></g><g fill="#289db9" fill-opacity="1"><g transform="translate(294.222809, 132.784915)"><g><path d="M 15.484375 0.59375 C 12.648438 0.570312 10.140625 -0.117188 7.953125 -1.484375 C 5.765625 -2.847656 4.128906 -4.722656 3.046875 -7.109375 C 1.972656 -9.492188 1.554688 -12.125 1.796875 -15 L 1.890625 -16.203125 C 2.179688 -19.347656 3.097656 -22.238281 4.640625 -24.875 C 6.179688 -27.507812 8.15625 -29.539062 10.5625 -30.96875 C 12.976562 -32.394531 15.65625 -33.066406 18.59375 -32.984375 C 22.757812 -32.910156 25.914062 -31.378906 28.0625 -28.390625 C 30.207031 -25.410156 31.019531 -21.632812 30.5 -17.0625 L 30.03125 -13.375 L 10.171875 -13.375 C 10.097656 -11.28125 10.609375 -9.601562 11.703125 -8.34375 C 12.804688 -7.09375 14.304688 -6.445312 16.203125 -6.40625 C 19.273438 -6.320312 21.96875 -7.507812 24.28125 -9.96875 L 28.140625 -5.171875 C 26.921875 -3.335938 25.160156 -1.90625 22.859375 -0.875 C 20.566406 0.144531 18.109375 0.632812 15.484375 0.59375 Z M 18.171875 -26.015625 C 16.617188 -26.054688 15.238281 -25.566406 14.03125 -24.546875 C 12.820312 -23.523438 11.738281 -21.757812 10.78125 -19.25 L 22.390625 -19.25 L 22.578125 -20.03125 C 22.691406 -20.820312 22.703125 -21.578125 22.609375 -22.296875 C 22.398438 -23.460938 21.90625 -24.367188 21.125 -25.015625 C 20.351562 -25.660156 19.367188 -25.992188 18.171875 -26.015625 Z M 18.171875 -26.015625 "/></g></g></g><g fill="#289db9" fill-opacity="1"><g transform="translate(323.790579, 132.784915)"><g><path d="M 18.859375 -9.125 C 19.179688 -10.726562 18.070312 -11.890625 15.53125 -12.609375 L 12.8125 -13.296875 C 6.363281 -15.066406 3.226562 -18.195312 3.40625 -22.6875 C 3.507812 -25.738281 4.863281 -28.226562 7.46875 -30.15625 C 10.070312 -32.082031 13.210938 -33.023438 16.890625 -32.984375 C 20.535156 -32.953125 23.484375 -31.988281 25.734375 -30.09375 C 27.992188 -28.195312 29.144531 -25.671875 29.1875 -22.515625 L 20.8125 -22.546875 C 20.84375 -25.316406 19.460938 -26.722656 16.671875 -26.765625 C 15.359375 -26.765625 14.21875 -26.429688 13.25 -25.765625 C 12.28125 -25.109375 11.6875 -24.222656 11.46875 -23.109375 C 11.164062 -21.515625 12.375 -20.390625 15.09375 -19.734375 L 16.28125 -19.453125 C 19.039062 -18.796875 21.144531 -18.039062 22.59375 -17.1875 C 24.050781 -16.34375 25.175781 -15.289062 25.96875 -14.03125 C 26.757812 -12.78125 27.125 -11.273438 27.0625 -9.515625 C 27 -7.460938 26.332031 -5.664062 25.0625 -4.125 C 23.800781 -2.59375 22.066406 -1.40625 19.859375 -0.5625 C 17.660156 0.269531 15.34375 0.65625 12.90625 0.59375 C 9.3125 0.550781 6.316406 -0.476562 3.921875 -2.5 C 1.523438 -4.519531 0.304688 -7.140625 0.265625 -10.359375 L 8.234375 -10.296875 C 8.316406 -7.203125 9.972656 -5.632812 13.203125 -5.59375 C 14.753906 -5.59375 16.035156 -5.910156 17.046875 -6.546875 C 18.054688 -7.191406 18.660156 -8.050781 18.859375 -9.125 Z M 18.859375 -9.125 "/></g></g></g></svg>