<svg xmlns="http://www.w3.org/2000/svg" xmlns:xlink="http://www.w3.org/1999/xlink" width="500" zoomAndPan="magnify" viewBox="0 0 375 225" height="300" preserveAspectRatio="xMidYMid meet" version="1.0"><defs><g/></defs><g fill="#db4a2b" fill-opacity="1"><g transform="translate(31.172037, 151.94242)"><g><path d="M 94.125 -90.234375 C 94.125 -84.378906 92.660156 -79.867188 89.734375 -76.703125 C 86.804688 -73.535156 82.414062 -71.1875 76.5625 -69.65625 C 79.34375 -67.539062 81.523438 -65.066406 83.109375 -62.234375 C 84.691406 -59.410156 85.484375 -56.414062 85.484375 -53.25 C 85.484375 -45.1875 82.4375 -39.09375 76.34375 -34.96875 C 70.257812 -30.84375 62.65625 -28.78125 53.53125 -28.78125 L 42.59375 -28.78125 C 36.550781 -28.78125 33.53125 -27.390625 33.53125 -24.609375 C 33.53125 -23.265625 34.203125 -22.1875 35.546875 -21.375 C 36.890625 -20.5625 39.238281 -20.15625 42.59375 -20.15625 L 68.5 -20.15625 C 76.945312 -20.15625 83.328125 -17.945312 87.640625 -13.53125 C 91.960938 -9.113281 94.125 -3.210938 94.125 4.171875 C 94.125 9.640625 92.679688 14.335938 89.796875 18.265625 C 86.921875 22.203125 83.035156 25.175781 78.140625 27.1875 C 73.253906 29.207031 67.929688 30.21875 62.171875 30.21875 L 19.859375 30.21875 C 16.410156 30.21875 13.222656 29.398438 10.296875 27.765625 C 7.367188 26.140625 5.039062 23.910156 3.3125 21.078125 C 1.582031 18.253906 0.71875 15.113281 0.71875 11.65625 C 0.71875 7.914062 1.867188 4.535156 4.171875 1.515625 C 6.472656 -1.503906 9.351562 -3.785156 12.8125 -5.328125 C 10.507812 -6.953125 8.6875 -8.914062 7.34375 -11.21875 C 6 -13.53125 5.328125 -16.023438 5.328125 -18.703125 C 5.328125 -22.453125 6.71875 -25.835938 9.5 -28.859375 C 12.28125 -31.878906 15.734375 -33.914062 19.859375 -34.96875 C 16.117188 -37.375 13.144531 -40.132812 10.9375 -43.25 C 8.726562 -46.363281 7.625 -49.648438 7.625 -53.109375 C 7.625 -61.929688 11.195312 -68.238281 18.34375 -72.03125 C 25.5 -75.820312 34.976562 -77.71875 46.78125 -77.71875 C 51.957031 -77.71875 56.128906 -77.429688 59.296875 -76.859375 C 63.992188 -79.828125 67.035156 -82.535156 68.421875 -84.984375 C 69.816406 -87.429688 70.515625 -89.179688 70.515625 -90.234375 Z M 46.484375 -62.75 C 43.316406 -62.75 40.722656 -61.929688 38.703125 -60.296875 C 36.691406 -58.671875 35.6875 -56.320312 35.6875 -53.25 C 35.6875 -50.082031 36.625 -47.707031 38.5 -46.125 C 40.375 -44.539062 43.035156 -43.75 46.484375 -43.75 C 49.941406 -43.75 52.648438 -44.539062 54.609375 -46.125 C 56.578125 -47.707031 57.5625 -50.082031 57.5625 -53.25 C 57.5625 -56.414062 56.578125 -58.789062 54.609375 -60.375 C 52.648438 -61.957031 49.941406 -62.75 46.484375 -62.75 Z M 35.40625 0 C 33.195312 0 31.394531 0.597656 30 1.796875 C 28.613281 2.992188 27.921875 4.695312 27.921875 6.90625 C 27.921875 9.113281 28.640625 10.890625 30.078125 12.234375 C 31.515625 13.578125 33.289062 14.25 35.40625 14.25 L 57.859375 14.25 C 59.960938 14.25 61.757812 13.597656 63.25 12.296875 C 64.738281 11.003906 65.484375 9.253906 65.484375 7.046875 C 65.484375 4.835938 64.765625 3.109375 63.328125 1.859375 C 61.890625 0.617188 60.066406 0 57.859375 0 Z M 35.40625 0 "/></g></g></g><g fill="#db4a2b" fill-opacity="1"><g transform="translate(118.9533, 151.94242)"><g><path d="M 54.828125 -77.859375 C 57.035156 -77.859375 59.003906 -77.59375 60.734375 -77.0625 C 62.460938 -76.539062 63.328125 -76.234375 63.328125 -76.140625 L 63.328125 -52.09375 L 54.109375 -52.09375 C 48.160156 -52.09375 43.867188 -50.554688 41.234375 -47.484375 C 38.597656 -44.421875 37.28125 -39.867188 37.28125 -33.828125 L 37.28125 0 L 8.640625 0 L 8.640625 -75.984375 L 32.09375 -75.984375 L 33.96875 -64.484375 C 35.695312 -68.890625 38.429688 -72.21875 42.171875 -74.46875 C 45.910156 -76.726562 50.128906 -77.859375 54.828125 -77.859375 Z M 54.828125 -77.859375 "/></g></g></g><g fill="#db4a2b" fill-opacity="1"><g transform="translate(174.643526, 151.94242)"><g><path d="M 9.640625 -84.90625 L 9.640625 -104.34375 L 38.28125 -104.34375 L 38.28125 -84.90625 Z M 9.640625 0 L 9.640625 -75.984375 L 38.28125 -75.984375 L 38.28125 0 Z M 9.640625 0 "/></g></g></g><g fill="#db4a2b" fill-opacity="1"><g transform="translate(214.360201, 151.94242)"><g><path d="M 63.90625 0 L 61.453125 -10.796875 C 55.890625 -2.441406 47.832031 1.734375 37.28125 1.734375 C 27.007812 1.734375 19.09375 -1.625 13.53125 -8.34375 C 7.96875 -15.0625 5.1875 -24.992188 5.1875 -38.140625 C 5.1875 -51.191406 7.96875 -61.050781 13.53125 -67.71875 C 19.09375 -74.382812 27.007812 -77.71875 37.28125 -77.71875 C 46.007812 -77.71875 53.109375 -74.789062 58.578125 -68.9375 L 58.578125 -104.34375 L 87.21875 -104.34375 L 87.21875 0 Z M 46.203125 -56.5625 C 37.953125 -56.5625 33.828125 -51.617188 33.828125 -41.734375 L 33.828125 -34.109375 C 33.828125 -24.316406 37.953125 -19.421875 46.203125 -19.421875 C 50.421875 -19.421875 53.582031 -20.910156 55.6875 -23.890625 C 57.800781 -26.867188 58.859375 -30.753906 58.859375 -35.546875 L 58.859375 -40.296875 C 58.859375 -45.097656 57.800781 -49.007812 55.6875 -52.03125 C 53.582031 -55.050781 50.421875 -56.5625 46.203125 -56.5625 Z M 46.203125 -56.5625 "/></g></g></g><g fill="#db4a2b" fill-opacity="1"><g transform="translate(302.141472, 151.94242)"><g><path d="M 8.78125 0 L 8.78125 -28.640625 L 39.296875 -28.640625 L 39.296875 0 Z M 8.78125 0 "/></g></g></g></svg>