<svg xmlns="http://www.w3.org/2000/svg" xmlns:xlink="http://www.w3.org/1999/xlink" width="500" zoomAndPan="magnify" viewBox="0 0 375 225" height="300" preserveAspectRatio="xMidYMid meet" version="1.0"><defs><g/><clipPath id="ed8e3ffcf0"><path d="M 17 137 L 337 137 L 337 203 L 17 203 Z M 17 137 " clip-rule="nonzero"/></clipPath><clipPath id="283ce33c68"><path d="M 20.40625 113.339844 L 342.140625 130.59375 L 338.019531 207.40625 L 16.289062 190.152344 Z M 20.40625 113.339844 " clip-rule="nonzero"/></clipPath><clipPath id="6fe499cc17"><path d="M 20.40625 113.339844 L 342.140625 130.59375 L 338.019531 207.40625 L 16.289062 190.152344 Z M 20.40625 113.339844 " clip-rule="nonzero"/></clipPath><clipPath id="948967c0b9"><path d="M 186 130 L 343 130 L 343 181 L 186 181 Z M 186 130 " clip-rule="nonzero"/></clipPath><clipPath id="162abd7458"><path d="M 20.40625 113.339844 L 342.140625 130.59375 L 338.019531 207.40625 L 16.289062 190.152344 Z M 20.40625 113.339844 " clip-rule="nonzero"/></clipPath><clipPath id="8693eb8f02"><path d="M 20.40625 113.339844 L 342.140625 130.59375 L 338.019531 207.40625 L 16.289062 190.152344 Z M 20.40625 113.339844 " clip-rule="nonzero"/></clipPath><clipPath id="c0e082d792"><path d="M 26 157 L 136 157 L 136 193 L 26 193 Z M 26 157 " clip-rule="nonzero"/></clipPath><clipPath id="da5826fc27"><path d="M 20.40625 113.339844 L 342.140625 130.59375 L 338.019531 207.40625 L 16.289062 190.152344 Z M 20.40625 113.339844 " clip-rule="nonzero"/></clipPath><clipPath id="d637be526c"><path d="M 20.40625 113.339844 L 342.140625 130.59375 L 338.019531 207.40625 L 16.289062 190.152344 Z M 20.40625 113.339844 " clip-rule="nonzero"/></clipPath></defs><g fill="#088dd2" fill-opacity="1"><g transform="translate(21.610802, 122.041052)"><g><path d="M 32.296875 -85.75 L 44.203125 -85.75 L 77.265625 0 L 61.1875 0 L 53.328125 -22.421875 L 22.421875 -22.421875 L 14.3125 0 L -0.640625 0 Z M 49.40625 -33.5625 C 46.695312 -41.164062 44.367188 -48.070312 42.421875 -54.28125 C 40.484375 -60.488281 39.007812 -65.363281 38 -68.90625 C 36.820312 -65.101562 35.257812 -60.117188 33.3125 -53.953125 C 31.375 -47.796875 29.09375 -41 26.46875 -33.5625 Z M 49.40625 -33.5625 "/></g></g></g><g fill="#088dd2" fill-opacity="1"><g transform="translate(98.238918, 122.041052)"><g><path d="M 83.09375 18.75 C 79.550781 21.113281 75.707031 23.097656 71.5625 24.703125 C 67.425781 26.304688 62.992188 27.109375 58.265625 27.109375 C 52.773438 27.109375 47.007812 25.648438 40.96875 22.734375 C 34.9375 19.828125 29.257812 15.414062 23.9375 9.5 L 26.734375 1.140625 C 27.742188 1.304688 28.734375 1.453125 29.703125 1.578125 C 30.671875 1.703125 31.617188 1.765625 32.546875 1.765625 C 36.773438 1.765625 40.742188 0.796875 44.453125 -1.140625 C 48.171875 -3.078125 51.398438 -5.90625 54.140625 -9.625 C 56.890625 -13.34375 59.066406 -17.925781 60.671875 -23.375 C 62.273438 -28.820312 63.078125 -35.050781 63.078125 -42.0625 C 63.078125 -46.363281 62.78125 -50.5 62.1875 -54.46875 C 61.601562 -58.4375 60.53125 -61.960938 58.96875 -65.046875 C 57.40625 -68.128906 55.25 -70.597656 52.5 -72.453125 C 49.757812 -74.316406 46.191406 -75.25 41.796875 -75.25 C 38.085938 -75.25 34.941406 -74.378906 32.359375 -72.640625 C 29.785156 -70.910156 27.675781 -68.585938 26.03125 -65.671875 C 24.382812 -62.765625 23.179688 -59.410156 22.421875 -55.609375 C 21.660156 -51.804688 21.28125 -47.796875 21.28125 -43.578125 C 21.28125 -35.804688 22.226562 -29.703125 24.125 -25.265625 C 26.03125 -20.835938 29.726562 -17.988281 35.21875 -16.71875 L 33.5625 -5.953125 C 28.5 -6.285156 24.171875 -7.59375 20.578125 -9.875 C 16.992188 -12.15625 14.082031 -15.023438 11.84375 -18.484375 C 9.601562 -21.953125 7.976562 -25.773438 6.96875 -29.953125 C 5.957031 -34.140625 5.453125 -38.300781 5.453125 -42.4375 C 5.453125 -48.851562 6.234375 -54.765625 7.796875 -60.171875 C 9.359375 -65.578125 11.722656 -70.265625 14.890625 -74.234375 C 18.054688 -78.203125 22.023438 -81.300781 26.796875 -83.53125 C 31.566406 -85.769531 37.160156 -86.890625 43.578125 -86.890625 C 49.910156 -86.890625 55.332031 -85.875 59.84375 -83.84375 C 64.363281 -81.820312 68.0625 -78.929688 70.9375 -75.171875 C 73.8125 -71.421875 75.921875 -66.863281 77.265625 -61.5 C 78.617188 -56.132812 79.296875 -50.117188 79.296875 -43.453125 C 79.296875 -35.597656 78.320312 -28.523438 76.375 -22.234375 C 74.4375 -15.941406 71.84375 -10.515625 68.59375 -5.953125 C 65.34375 -1.390625 61.5625 2.28125 57.25 5.0625 C 52.945312 7.851562 48.429688 9.671875 43.703125 10.515625 C 45.640625 11.953125 47.664062 12.984375 49.78125 13.609375 C 51.894531 14.242188 54.050781 14.5625 56.25 14.5625 C 59.28125 14.5625 62.566406 14.015625 66.109375 12.921875 C 69.660156 11.828125 73.59375 10.222656 77.90625 8.109375 Z M 83.09375 18.75 "/></g></g></g><g fill="#088dd2" fill-opacity="1"><g transform="translate(183.353133, 122.041052)"><g><path d="M 22.546875 -85.75 L 22.546875 -32.6875 C 22.546875 -24.832031 24.191406 -19.234375 27.484375 -15.890625 C 30.773438 -12.554688 35.253906 -10.890625 40.921875 -10.890625 C 46.660156 -10.890625 50.898438 -12.8125 53.640625 -16.65625 C 56.390625 -20.5 57.765625 -25.84375 57.765625 -32.6875 L 57.765625 -85.75 L 72.84375 -85.75 L 72.84375 -31.546875 C 72.84375 -27.148438 72.269531 -23.007812 71.125 -19.125 C 69.988281 -15.238281 68.109375 -11.816406 65.484375 -8.859375 C 62.867188 -5.910156 59.40625 -3.566406 55.09375 -1.828125 C 50.789062 -0.0976562 45.515625 0.765625 39.265625 0.765625 C 33.273438 0.765625 28.269531 -0.0976562 24.25 -1.828125 C 20.238281 -3.566406 16.988281 -5.910156 14.5 -8.859375 C 12.007812 -11.816406 10.234375 -15.238281 9.171875 -19.125 C 8.117188 -23.007812 7.59375 -27.148438 7.59375 -31.546875 L 7.59375 -85.75 Z M 22.546875 -85.75 "/></g></g></g><g fill="#088dd2" fill-opacity="1"><g transform="translate(263.780992, 122.041052)"><g><path d="M 32.296875 -85.75 L 44.203125 -85.75 L 77.265625 0 L 61.1875 0 L 53.328125 -22.421875 L 22.421875 -22.421875 L 14.3125 0 L -0.640625 0 Z M 49.40625 -33.5625 C 46.695312 -41.164062 44.367188 -48.070312 42.421875 -54.28125 C 40.484375 -60.488281 39.007812 -65.363281 38 -68.90625 C 36.820312 -65.101562 35.257812 -60.117188 33.3125 -53.953125 C 31.375 -47.796875 29.09375 -41 26.46875 -33.5625 Z M 49.40625 -33.5625 "/></g></g></g><g clip-path="url(#ed8e3ffcf0)"><g clip-path="url(#283ce33c68)"><g clip-path="url(#6fe499cc17)"><path fill="#00adef" d="M 17.964844 159.535156 C 17.964844 159.535156 18.085938 159.222656 18.324219 158.613281 C 18.445312 158.3125 18.585938 157.933594 18.769531 157.488281 C 18.972656 157.046875 19.214844 156.539062 19.492188 155.957031 C 19.621094 155.660156 19.792969 155.367188 19.964844 155.054688 C 20.136719 154.742188 20.320312 154.410156 20.511719 154.066406 C 20.5625 153.980469 20.609375 153.890625 20.660156 153.800781 C 20.714844 153.71875 20.769531 153.632812 20.828125 153.546875 C 20.941406 153.371094 21.054688 153.195312 21.171875 153.011719 C 21.292969 152.832031 21.414062 152.644531 21.535156 152.453125 C 21.65625 152.261719 21.785156 152.070312 21.929688 151.882812 C 23.011719 150.339844 24.445312 148.675781 26.28125 147.011719 C 28.109375 145.347656 30.378906 143.726562 33.058594 142.335938 C 35.738281 140.9375 38.816406 139.757812 42.199219 138.9375 C 42.621094 138.835938 43.050781 138.730469 43.480469 138.628906 C 43.910156 138.53125 44.34375 138.453125 44.785156 138.363281 C 45.664062 138.179688 46.558594 138.050781 47.472656 137.910156 C 47.929688 137.832031 48.386719 137.785156 48.847656 137.730469 C 49.3125 137.675781 49.777344 137.613281 50.246094 137.566406 C 50.71875 137.527344 51.191406 137.492188 51.664062 137.449219 C 51.902344 137.433594 52.144531 137.414062 52.382812 137.394531 C 52.621094 137.378906 52.863281 137.367188 53.101562 137.355469 C 56.960938 137.136719 61.011719 137.21875 65.1875 137.582031 C 73.550781 138.28125 82.410156 140.046875 91.515625 142.542969 C 100.625 145.039062 109.992188 148.285156 119.464844 151.980469 C 121.828125 152.90625 124.207031 153.847656 126.582031 154.820312 C 128.949219 155.800781 131.328125 156.785156 133.726562 157.773438 C 136.105469 158.773438 138.488281 159.777344 140.855469 160.753906 C 142.042969 161.242188 143.214844 161.726562 144.386719 162.191406 C 145.59375 162.667969 146.800781 163.148438 148.015625 163.625 C 150.480469 164.605469 152.871094 165.519531 155.300781 166.464844 C 156.507812 166.9375 157.738281 167.386719 158.960938 167.84375 C 160.183594 168.304688 161.410156 168.769531 162.636719 169.230469 C 163.867188 169.675781 165.097656 170.121094 166.328125 170.570312 L 168.175781 171.242188 L 170.027344 171.890625 C 171.261719 172.324219 172.496094 172.757812 173.734375 173.191406 C 174.96875 173.625 176.214844 174.023438 177.453125 174.4375 L 179.3125 175.0625 L 180.242188 175.378906 L 181.171875 175.671875 C 182.417969 176.066406 183.660156 176.460938 184.902344 176.851562 C 185.523438 177.042969 186.140625 177.253906 186.765625 177.433594 L 188.632812 177.988281 C 189.878906 178.363281 191.121094 178.734375 192.363281 179.105469 C 193.613281 179.449219 194.859375 179.792969 196.101562 180.136719 C 196.722656 180.308594 197.347656 180.484375 197.96875 180.65625 C 198.589844 180.839844 199.210938 180.984375 199.832031 181.144531 C 201.078125 181.464844 202.324219 181.78125 203.566406 182.097656 L 204.496094 182.332031 L 205.429688 182.546875 C 206.046875 182.691406 206.671875 182.835938 207.289062 182.980469 C 208.53125 183.261719 209.769531 183.566406 211.007812 183.835938 C 212.25 184.085938 213.484375 184.339844 214.71875 184.59375 C 215.335938 184.722656 215.953125 184.851562 216.570312 184.980469 C 217.183594 185.097656 217.804688 185.203125 218.414062 185.3125 C 219.648438 185.535156 220.878906 185.753906 222.105469 185.976562 C 222.714844 186.09375 223.328125 186.179688 223.945312 186.273438 C 224.554688 186.363281 225.167969 186.457031 225.777344 186.550781 C 226.386719 186.640625 226.996094 186.734375 227.605469 186.828125 L 228.519531 186.964844 L 228.972656 187.035156 L 229.429688 187.089844 C 230.644531 187.238281 231.855469 187.382812 233.0625 187.527344 C 233.667969 187.601562 234.269531 187.679688 234.871094 187.753906 C 235.472656 187.824219 236.074219 187.863281 236.675781 187.921875 C 237.875 188.027344 239.070312 188.136719 240.261719 188.242188 C 240.558594 188.273438 240.855469 188.300781 241.152344 188.328125 L 241.265625 188.339844 C 241.316406 188.34375 241.210938 188.339844 241.308594 188.347656 L 241.539062 188.359375 L 242.007812 188.386719 C 242.625 188.429688 243.238281 188.46875 243.851562 188.507812 C 244.484375 188.554688 245.039062 188.574219 245.617188 188.601562 C 246.191406 188.628906 246.761719 188.65625 247.332031 188.683594 C 248.496094 188.722656 249.660156 188.757812 250.820312 188.789062 C 251.976562 188.792969 253.125 188.824219 254.269531 188.8125 C 254.84375 188.808594 255.414062 188.804688 255.984375 188.800781 C 256.269531 188.800781 256.554688 188.796875 256.835938 188.796875 C 257.121094 188.792969 257.402344 188.78125 257.6875 188.777344 C 258.820312 188.742188 259.945312 188.730469 261.0625 188.667969 C 261.621094 188.644531 262.179688 188.617188 262.734375 188.59375 C 263.289062 188.574219 263.84375 188.527344 264.394531 188.496094 C 273.21875 187.953125 281.53125 186.714844 289.097656 185.003906 C 292.886719 184.144531 296.484375 183.179688 299.875 182.121094 C 303.265625 181.058594 306.445312 179.917969 309.40625 178.75 C 312.371094 177.582031 315.085938 176.339844 317.59375 175.164062 C 320.078125 173.933594 322.355469 172.769531 324.367188 171.621094 C 324.871094 171.339844 325.363281 171.0625 325.84375 170.792969 C 326.3125 170.515625 326.765625 170.234375 327.207031 169.96875 C 327.65625 169.703125 328.085938 169.445312 328.503906 169.199219 C 328.917969 168.949219 329.308594 168.6875 329.691406 168.449219 C 330.074219 168.203125 330.441406 167.96875 330.792969 167.746094 C 330.972656 167.632812 331.148438 167.523438 331.3125 167.414062 C 331.484375 167.300781 331.644531 167.191406 331.804688 167.085938 C 332.445312 166.65625 333.027344 166.265625 333.546875 165.917969 C 334.074219 165.574219 334.519531 165.242188 334.914062 164.96875 C 335.304688 164.691406 335.636719 164.457031 335.902344 164.269531 C 336.4375 163.894531 336.710938 163.699219 336.710938 163.699219 C 336.710938 163.699219 336.492188 163.957031 336.070312 164.453125 C 335.855469 164.699219 335.59375 165.007812 335.277344 165.375 C 334.960938 165.738281 334.597656 166.167969 334.164062 166.625 C 333.730469 167.085938 333.246094 167.605469 332.714844 168.175781 C 332.449219 168.464844 332.160156 168.75 331.855469 169.046875 C 331.554688 169.347656 331.238281 169.660156 330.914062 169.984375 C 330.582031 170.308594 330.25 170.652344 329.886719 170.992188 C 329.523438 171.328125 329.144531 171.675781 328.757812 172.035156 C 328.367188 172.390625 327.964844 172.765625 327.542969 173.140625 C 327.117188 173.507812 326.679688 173.886719 326.226562 174.277344 C 324.429688 175.847656 322.339844 177.472656 320.011719 179.1875 C 319.421875 179.601562 318.816406 180.027344 318.199219 180.457031 C 317.890625 180.675781 317.578125 180.890625 317.265625 181.113281 C 316.945312 181.320312 316.621094 181.535156 316.292969 181.746094 C 315.640625 182.171875 314.976562 182.621094 314.289062 183.046875 C 313.597656 183.472656 312.894531 183.902344 312.179688 184.339844 C 309.292969 186.050781 306.144531 187.753906 302.738281 189.386719 C 299.328125 191.011719 295.65625 192.550781 291.75 193.964844 C 283.9375 196.804688 275.167969 199.109375 265.722656 200.570312 C 264.539062 200.761719 263.347656 200.921875 262.144531 201.078125 C 260.945312 201.25 259.734375 201.367188 258.515625 201.507812 C 258.207031 201.539062 257.902344 201.574219 257.597656 201.605469 C 257.289062 201.632812 256.984375 201.660156 256.675781 201.6875 C 256.058594 201.742188 255.445312 201.800781 254.824219 201.851562 C 253.585938 201.957031 252.339844 202.023438 251.082031 202.109375 C 249.828125 202.171875 248.570312 202.230469 247.292969 202.28125 C 246.648438 202.292969 245.996094 202.308594 245.34375 202.320312 C 244.695312 202.332031 244.023438 202.351562 243.421875 202.347656 C 242.808594 202.347656 242.191406 202.351562 241.574219 202.351562 L 240.875 202.351562 C 240.898438 202.355469 240.714844 202.351562 240.6875 202.347656 L 240.566406 202.347656 C 240.246094 202.335938 239.921875 202.332031 239.601562 202.320312 C 238.3125 202.285156 237.015625 202.246094 235.714844 202.207031 C 225.300781 201.839844 214.617188 200.453125 203.96875 198.292969 C 198.640625 197.238281 193.335938 195.921875 188.046875 194.511719 C 182.78125 193.042969 177.523438 191.46875 172.347656 189.722656 C 167.15625 188 162.046875 186.117188 156.984375 184.183594 C 154.460938 183.195312 151.953125 182.214844 149.457031 181.183594 C 146.964844 180.152344 144.441406 179.132812 142.050781 178.082031 C 140.828125 177.558594 139.613281 177.035156 138.394531 176.507812 C 137.152344 175.960938 135.917969 175.417969 134.714844 174.859375 C 132.300781 173.753906 129.941406 172.644531 127.605469 171.550781 C 122.945312 169.34375 118.382812 167.195312 113.886719 165.121094 C 104.902344 160.984375 96.183594 157.199219 87.796875 154.054688 C 79.417969 150.910156 71.375 148.382812 63.851562 146.789062 C 61.972656 146.375 60.128906 146.0625 58.320312 145.765625 C 57.417969 145.640625 56.519531 145.488281 55.636719 145.398438 C 55.195312 145.347656 54.753906 145.292969 54.316406 145.242188 C 53.882812 145.203125 53.449219 145.164062 53.015625 145.125 C 49.5625 144.808594 46.292969 144.804688 43.242188 145.050781 C 43.050781 145.066406 42.863281 145.078125 42.671875 145.09375 C 42.484375 145.117188 42.296875 145.140625 42.113281 145.160156 C 41.738281 145.207031 41.371094 145.25 41.003906 145.292969 C 40.636719 145.335938 40.277344 145.40625 39.921875 145.460938 C 39.5625 145.519531 39.203125 145.566406 38.855469 145.640625 C 38.507812 145.714844 38.164062 145.785156 37.820312 145.859375 C 37.648438 145.894531 37.480469 145.929688 37.308594 145.964844 C 37.140625 146.007812 36.976562 146.050781 36.808594 146.09375 C 36.476562 146.179688 36.148438 146.265625 35.824219 146.351562 L 35.578125 146.414062 L 35.339844 146.488281 C 35.179688 146.539062 35.023438 146.589844 34.867188 146.640625 C 32.34375 147.425781 30.117188 148.453125 28.207031 149.59375 C 27.96875 149.734375 27.726562 149.871094 27.496094 150.015625 C 27.273438 150.167969 27.050781 150.320312 26.835938 150.46875 C 26.613281 150.617188 26.398438 150.761719 26.183594 150.90625 C 25.96875 151.050781 25.777344 151.21875 25.578125 151.367188 C 25.378906 151.519531 25.183594 151.671875 24.992188 151.820312 C 24.800781 151.96875 24.601562 152.109375 24.429688 152.269531 C 24.070312 152.582031 23.726562 152.882812 23.394531 153.171875 C 23.222656 153.316406 23.070312 153.464844 22.921875 153.617188 C 22.769531 153.769531 22.621094 153.914062 22.476562 154.0625 C 22.328125 154.207031 22.183594 154.347656 22.042969 154.488281 C 21.902344 154.625 21.765625 154.761719 21.644531 154.90625 C 21.390625 155.1875 21.148438 155.460938 20.917969 155.714844 C 20.683594 155.972656 20.457031 156.214844 20.273438 156.460938 C 19.886719 156.945312 19.542969 157.375 19.246094 157.746094 C 18.960938 158.132812 18.730469 158.46875 18.542969 158.734375 C 18.160156 159.265625 17.964844 159.535156 17.964844 159.535156 " fill-opacity="1" fill-rule="nonzero"/></g></g></g><g clip-path="url(#948967c0b9)"><g clip-path="url(#162abd7458)"><g clip-path="url(#8693eb8f02)"><path fill="#f1f7ff" d="M 186.152344 161.933594 C 186.152344 161.933594 186.816406 162.09375 188.0625 162.398438 C 189.304688 162.699219 191.121094 163.210938 193.429688 163.757812 C 194.007812 163.898438 194.617188 164.042969 195.246094 164.207031 C 195.882812 164.359375 196.535156 164.546875 197.234375 164.699219 C 198.632812 165.007812 200.125 165.371094 201.726562 165.746094 C 203.332031 166.09375 205.035156 166.464844 206.835938 166.855469 C 208.632812 167.210938 210.523438 167.585938 212.496094 167.980469 C 213.484375 168.152344 214.496094 168.328125 215.523438 168.507812 C 216.035156 168.601562 216.554688 168.691406 217.074219 168.785156 C 217.335938 168.832031 217.601562 168.878906 217.863281 168.925781 C 218.128906 168.964844 218.394531 169.003906 218.660156 169.042969 C 220.796875 169.339844 222.988281 169.734375 225.257812 169.988281 C 225.824219 170.058594 226.394531 170.132812 226.96875 170.203125 C 227.539062 170.273438 228.117188 170.363281 228.695312 170.421875 C 229.859375 170.535156 231.039062 170.652344 232.226562 170.777344 C 232.820312 170.832031 233.417969 170.910156 234.015625 170.949219 C 234.617188 170.992188 235.222656 171.035156 235.828125 171.078125 C 236.4375 171.121094 237.042969 171.167969 237.660156 171.210938 C 238.269531 171.25 238.882812 171.320312 239.5 171.335938 C 240.734375 171.386719 241.976562 171.441406 243.230469 171.496094 C 243.542969 171.507812 243.859375 171.523438 244.171875 171.539062 C 244.484375 171.542969 244.800781 171.546875 245.113281 171.550781 C 245.742188 171.554688 246.378906 171.5625 247.011719 171.570312 C 248.277344 171.585938 249.550781 171.625 250.832031 171.574219 C 252.109375 171.550781 253.394531 171.523438 254.683594 171.5 C 259.835938 171.277344 265.039062 170.816406 270.203125 170.089844 L 272.152344 169.78125 C 272.84375 169.683594 273.445312 169.566406 274.074219 169.453125 C 275.3125 169.238281 276.59375 168.96875 277.863281 168.714844 C 280.390625 168.160156 282.902344 167.558594 285.367188 166.871094 C 285.984375 166.699219 286.597656 166.515625 287.210938 166.339844 L 288.125 166.070312 L 289.035156 165.78125 C 289.640625 165.589844 290.25 165.414062 290.847656 165.210938 C 291.445312 165.007812 292.039062 164.804688 292.632812 164.605469 C 293.230469 164.40625 293.816406 164.179688 294.40625 163.972656 C 294.992188 163.761719 295.582031 163.554688 296.15625 163.324219 C 296.734375 163.101562 297.3125 162.878906 297.886719 162.65625 C 298.457031 162.421875 299.023438 162.191406 299.589844 161.957031 C 299.871094 161.839844 300.152344 161.722656 300.433594 161.605469 C 300.714844 161.484375 300.992188 161.363281 301.269531 161.242188 C 301.820312 160.996094 302.378906 160.761719 302.925781 160.515625 C 304.011719 160.003906 305.105469 159.519531 306.15625 158.992188 C 308.285156 157.96875 310.3125 156.867188 312.285156 155.777344 C 316.195312 153.550781 319.789062 151.234375 322.988281 148.902344 C 323.785156 148.316406 324.5625 147.734375 325.320312 147.160156 C 326.0625 146.570312 326.789062 145.992188 327.5 145.429688 C 328.195312 144.851562 328.886719 144.296875 329.535156 143.734375 C 330.183594 143.164062 330.816406 142.613281 331.425781 142.082031 C 333.851562 139.917969 335.847656 137.882812 337.480469 136.175781 C 338.285156 135.316406 339.015625 134.546875 339.621094 133.855469 C 340.230469 133.167969 340.765625 132.585938 341.171875 132.09375 C 342.007812 131.125 342.453125 130.605469 342.453125 130.605469 C 342.453125 130.605469 342.382812 130.761719 342.242188 131.0625 C 342.105469 131.363281 341.90625 131.8125 341.628906 132.390625 C 341.484375 132.683594 341.34375 133.011719 341.15625 133.359375 C 340.972656 133.710938 340.773438 134.09375 340.558594 134.507812 C 340.335938 134.917969 340.117188 135.371094 339.84375 135.835938 C 339.574219 136.300781 339.289062 136.789062 338.988281 137.3125 C 337.75 139.382812 336.15625 141.859375 334.089844 144.539062 C 333.574219 145.210938 333.015625 145.882812 332.453125 146.585938 C 331.878906 147.28125 331.265625 147.972656 330.644531 148.699219 C 330.019531 149.417969 329.34375 150.121094 328.664062 150.859375 C 327.964844 151.574219 327.246094 152.304688 326.503906 153.046875 C 323.492188 155.964844 320.015625 158.925781 316.085938 161.730469 C 314.113281 163.117188 312.054688 164.503906 309.867188 165.796875 C 307.699219 167.113281 305.417969 168.351562 303.058594 169.53125 C 302.464844 169.820312 301.871094 170.113281 301.269531 170.40625 C 300.664062 170.683594 300.058594 170.960938 299.449219 171.242188 C 298.84375 171.523438 298.222656 171.785156 297.601562 172.046875 C 296.976562 172.308594 296.359375 172.589844 295.726562 172.832031 C 293.203125 173.851562 290.605469 174.765625 287.964844 175.609375 C 285.3125 176.433594 282.609375 177.167969 279.871094 177.804688 C 278.496094 178.097656 277.136719 178.414062 275.710938 178.664062 C 275.007812 178.792969 274.28125 178.933594 273.628906 179.035156 L 271.566406 179.367188 C 265.992188 180.144531 260.378906 180.542969 254.859375 180.601562 C 252.105469 180.542969 249.371094 180.546875 246.679688 180.332031 C 246.007812 180.289062 245.339844 180.246094 244.671875 180.199219 C 244.335938 180.179688 244 180.15625 243.671875 180.132812 C 243.339844 180.097656 243.007812 180.0625 242.679688 180.03125 C 241.359375 179.886719 240.046875 179.746094 238.746094 179.605469 C 238.097656 179.546875 237.457031 179.433594 236.816406 179.34375 C 236.175781 179.246094 235.539062 179.148438 234.90625 179.058594 C 234.273438 178.960938 233.644531 178.863281 233.015625 178.769531 C 232.390625 178.671875 231.773438 178.539062 231.15625 178.429688 C 229.925781 178.191406 228.707031 177.960938 227.507812 177.722656 C 226.3125 177.464844 225.136719 177.183594 223.980469 176.910156 C 223.402344 176.773438 222.828125 176.636719 222.253906 176.5 L 221.828125 176.402344 L 221.40625 176.285156 C 221.125 176.207031 220.84375 176.132812 220.566406 176.054688 C 219.453125 175.75 218.359375 175.449219 217.28125 175.144531 C 217.015625 175.066406 216.746094 174.992188 216.480469 174.917969 C 216.21875 174.832031 215.953125 174.75 215.691406 174.667969 C 215.167969 174.503906 214.652344 174.339844 214.132812 174.175781 C 213.109375 173.851562 212.101562 173.539062 211.121094 173.210938 C 210.148438 172.863281 209.195312 172.519531 208.265625 172.183594 C 207.339844 171.84375 206.421875 171.539062 205.554688 171.183594 C 204.679688 170.832031 203.832031 170.492188 203.003906 170.15625 C 202.179688 169.824219 201.378906 169.511719 200.609375 169.171875 C 199.082031 168.488281 197.648438 167.863281 196.339844 167.257812 C 195.027344 166.644531 193.835938 166.042969 192.761719 165.507812 C 192.230469 165.242188 191.722656 164.984375 191.246094 164.746094 C 190.765625 164.507812 190.339844 164.257812 189.929688 164.039062 C 189.113281 163.601562 188.421875 163.214844 187.863281 162.902344 C 186.746094 162.269531 186.152344 161.933594 186.152344 161.933594 " fill-opacity="1" fill-rule="nonzero"/></g></g></g><g clip-path="url(#c0e082d792)"><g clip-path="url(#da5826fc27)"><g clip-path="url(#d637be526c)"><path fill="#0b5079" d="M 26.203125 162.507812 C 26.203125 162.507812 26.3125 162.46875 26.519531 162.386719 C 26.730469 162.308594 27.042969 162.1875 27.449219 162.042969 C 27.855469 161.894531 28.359375 161.710938 28.953125 161.507812 C 29.246094 161.402344 29.566406 161.292969 29.90625 161.175781 C 30.25 161.070312 30.617188 160.960938 31.003906 160.839844 C 31.78125 160.605469 32.648438 160.355469 33.59375 160.082031 C 34.542969 159.835938 35.570312 159.59375 36.675781 159.324219 C 36.949219 159.261719 37.230469 159.183594 37.515625 159.128906 C 37.800781 159.074219 38.09375 159.015625 38.390625 158.957031 C 38.980469 158.84375 39.589844 158.722656 40.214844 158.601562 C 40.527344 158.542969 40.84375 158.472656 41.167969 158.417969 C 41.488281 158.371094 41.816406 158.320312 42.144531 158.273438 C 42.808594 158.171875 43.488281 158.070312 44.179688 157.964844 C 44.871094 157.847656 45.582031 157.789062 46.308594 157.703125 C 47.035156 157.628906 47.773438 157.550781 48.527344 157.472656 C 49.28125 157.414062 50.046875 157.367188 50.828125 157.316406 C 51.21875 157.292969 51.613281 157.265625 52.011719 157.242188 C 52.40625 157.214844 52.804688 157.214844 53.210938 157.203125 C 54.015625 157.183594 54.832031 157.164062 55.660156 157.144531 C 56.488281 157.128906 57.324219 157.15625 58.171875 157.167969 C 58.597656 157.175781 59.023438 157.183594 59.449219 157.191406 C 59.878906 157.191406 60.308594 157.234375 60.742188 157.25 C 61.605469 157.300781 62.480469 157.351562 63.359375 157.398438 C 66.871094 157.683594 70.496094 158.136719 74.140625 158.816406 C 77.78125 159.519531 81.445312 160.410156 85.050781 161.488281 C 88.644531 162.59375 92.183594 163.875 95.59375 165.289062 C 98.996094 166.722656 102.265625 168.304688 105.359375 169.945312 C 106.132812 170.363281 106.886719 170.792969 107.636719 171.210938 C 108.011719 171.421875 108.386719 171.632812 108.757812 171.839844 C 109.121094 172.058594 109.484375 172.277344 109.84375 172.492188 C 110.566406 172.925781 111.28125 173.351562 111.980469 173.785156 C 112.671875 174.230469 113.355469 174.667969 114.027344 175.101562 C 114.363281 175.320312 114.695312 175.535156 115.023438 175.75 C 115.351562 175.972656 115.671875 176.195312 115.992188 176.414062 C 116.632812 176.855469 117.257812 177.289062 117.878906 177.71875 C 118.488281 178.15625 119.082031 178.59375 119.664062 179.027344 C 120.246094 179.460938 120.824219 179.871094 121.371094 180.304688 C 121.917969 180.738281 122.453125 181.15625 122.972656 181.570312 C 123.496094 181.984375 124.011719 182.375 124.492188 182.789062 C 124.976562 183.199219 125.449219 183.597656 125.90625 183.984375 C 126.363281 184.371094 126.816406 184.734375 127.230469 185.121094 C 128.070312 185.875 128.859375 186.574219 129.574219 187.238281 C 130.285156 187.90625 130.933594 188.527344 131.507812 189.09375 C 131.796875 189.375 132.070312 189.644531 132.328125 189.894531 C 132.585938 190.148438 132.816406 190.398438 133.035156 190.621094 C 133.472656 191.074219 133.839844 191.460938 134.136719 191.78125 C 134.4375 192.09375 134.660156 192.34375 134.8125 192.503906 C 134.964844 192.671875 135.042969 192.757812 135.042969 192.757812 C 135.042969 192.757812 134.9375 192.703125 134.738281 192.597656 C 134.542969 192.492188 134.242188 192.339844 133.863281 192.132812 C 133.097656 191.726562 132.003906 191.097656 130.585938 190.335938 C 129.878906 189.953125 129.109375 189.511719 128.265625 189.050781 C 127.410156 188.597656 126.503906 188.089844 125.527344 187.558594 C 124.550781 187.03125 123.511719 186.472656 122.417969 185.882812 C 121.324219 185.296875 120.167969 184.695312 118.96875 184.0625 C 117.765625 183.445312 116.507812 182.800781 115.207031 182.136719 C 114.554688 181.8125 113.894531 181.484375 113.21875 181.148438 C 112.882812 180.980469 112.546875 180.8125 112.203125 180.640625 C 111.859375 180.476562 111.515625 180.3125 111.167969 180.144531 C 110.472656 179.808594 109.769531 179.46875 109.054688 179.125 C 108.339844 178.792969 107.613281 178.457031 106.878906 178.121094 C 106.511719 177.949219 106.144531 177.777344 105.773438 177.605469 C 105.402344 177.441406 105.027344 177.273438 104.652344 177.105469 C 103.898438 176.773438 103.140625 176.433594 102.375 176.09375 C 99.300781 174.773438 96.105469 173.476562 92.835938 172.242188 C 89.558594 171.03125 86.203125 169.886719 82.820312 168.847656 C 79.429688 167.828125 76.011719 166.921875 72.621094 166.125 C 69.226562 165.351562 65.855469 164.714844 62.578125 164.167969 C 60.933594 163.941406 59.316406 163.664062 57.722656 163.492188 C 57.324219 163.441406 56.929688 163.394531 56.535156 163.34375 C 56.140625 163.296875 55.75 163.238281 55.359375 163.203125 C 54.578125 163.125 53.808594 163.050781 53.046875 162.976562 C 52.285156 162.882812 51.53125 162.839844 50.785156 162.78125 C 50.042969 162.722656 49.308594 162.664062 48.589844 162.609375 C 47.867188 162.574219 47.15625 162.535156 46.457031 162.5 C 45.757812 162.460938 45.074219 162.410156 44.398438 162.398438 C 41.707031 162.292969 39.222656 162.261719 37.011719 162.261719 C 35.90625 162.273438 34.871094 162.292969 33.910156 162.285156 C 32.953125 162.3125 32.074219 162.34375 31.273438 162.355469 C 30.871094 162.363281 30.492188 162.371094 30.136719 162.378906 C 29.777344 162.394531 29.441406 162.410156 29.128906 162.421875 C 28.5 162.449219 27.96875 162.464844 27.535156 162.480469 C 27.101562 162.496094 26.765625 162.496094 26.542969 162.503906 C 26.320312 162.507812 26.203125 162.507812 26.203125 162.507812 " fill-opacity="1" fill-rule="nonzero"/></g></g></g><g fill="#0b5079" fill-opacity="1"><g transform="translate(192.221944, 156.978755)"><g><path d="M 16 -24.296875 C 16.457031 -24.296875 16.796875 -24.171875 17.015625 -23.921875 C 17.234375 -23.679688 17.34375 -23.363281 17.34375 -22.96875 C 17.34375 -22.113281 16.894531 -21.6875 16 -21.6875 L 5.546875 -21.6875 L 5.546875 -13.46875 L 15.484375 -13.46875 C 15.941406 -13.46875 16.28125 -13.34375 16.5 -13.09375 C 16.71875 -12.851562 16.828125 -12.535156 16.828125 -12.140625 C 16.828125 -11.285156 16.378906 -10.859375 15.484375 -10.859375 L 5.546875 -10.859375 L 5.546875 -2.609375 L 16.34375 -2.609375 C 16.8125 -2.609375 17.15625 -2.484375 17.375 -2.234375 C 17.59375 -1.992188 17.703125 -1.675781 17.703125 -1.28125 C 17.703125 -0.425781 17.25 0 16.34375 0 L 5.03125 0 C 4.101562 0 3.46875 -0.171875 3.125 -0.515625 C 2.78125 -0.867188 2.609375 -1.414062 2.609375 -2.15625 L 2.609375 -22.140625 C 2.609375 -22.878906 2.78125 -23.421875 3.125 -23.765625 C 3.46875 -24.117188 4.101562 -24.296875 5.03125 -24.296875 Z M 16 -24.296875 "/></g></g></g><g fill="#0b5079" fill-opacity="1"><g transform="translate(211.375908, 156.978755)"><g><path d="M 5.546875 -18.53125 L 5.546875 -1.046875 C 5.546875 -0.578125 5.398438 -0.226562 5.109375 0 C 4.828125 0.226562 4.488281 0.34375 4.09375 0.34375 C 3.695312 0.34375 3.347656 0.226562 3.046875 0 C 2.753906 -0.226562 2.609375 -0.578125 2.609375 -1.046875 L 2.609375 -22.65625 C 2.609375 -23.976562 3.113281 -24.640625 4.125 -24.640625 C 4.519531 -24.640625 4.847656 -24.546875 5.109375 -24.359375 C 5.378906 -24.171875 5.644531 -23.882812 5.90625 -23.5 L 17.34375 -5.71875 L 17.34375 -23.25 C 17.34375 -23.707031 17.492188 -24.050781 17.796875 -24.28125 C 18.097656 -24.519531 18.445312 -24.640625 18.84375 -24.640625 C 19.238281 -24.640625 19.578125 -24.519531 19.859375 -24.28125 C 20.148438 -24.050781 20.296875 -23.707031 20.296875 -23.25 L 20.296875 -1.625 C 20.296875 -0.3125 19.789062 0.34375 18.78125 0.34375 C 18.382812 0.34375 18.050781 0.25 17.78125 0.0625 C 17.519531 -0.113281 17.257812 -0.398438 17 -0.796875 Z M 5.546875 -18.53125 "/></g></g></g><g fill="#0b5079" fill-opacity="1"><g transform="translate(234.277378, 156.978755)"><g><path d="M 16 -24.296875 C 16.457031 -24.296875 16.796875 -24.171875 17.015625 -23.921875 C 17.234375 -23.679688 17.34375 -23.363281 17.34375 -22.96875 C 17.34375 -22.113281 16.894531 -21.6875 16 -21.6875 L 5.546875 -21.6875 L 5.546875 -13.46875 L 15.484375 -13.46875 C 15.941406 -13.46875 16.28125 -13.34375 16.5 -13.09375 C 16.71875 -12.851562 16.828125 -12.535156 16.828125 -12.140625 C 16.828125 -11.285156 16.378906 -10.859375 15.484375 -10.859375 L 5.546875 -10.859375 L 5.546875 -2.609375 L 16.34375 -2.609375 C 16.8125 -2.609375 17.15625 -2.484375 17.375 -2.234375 C 17.59375 -1.992188 17.703125 -1.675781 17.703125 -1.28125 C 17.703125 -0.425781 17.25 0 16.34375 0 L 5.03125 0 C 4.101562 0 3.46875 -0.171875 3.125 -0.515625 C 2.78125 -0.867188 2.609375 -1.414062 2.609375 -2.15625 L 2.609375 -22.140625 C 2.609375 -22.878906 2.78125 -23.421875 3.125 -23.765625 C 3.46875 -24.117188 4.101562 -24.296875 5.03125 -24.296875 Z M 16 -24.296875 "/></g></g></g><g fill="#0b5079" fill-opacity="1"><g transform="translate(253.431342, 156.978755)"><g><path d="M 17.765625 -17.53125 C 17.765625 -13.664062 16.019531 -11.394531 12.53125 -10.71875 L 18.078125 -1.25 C 18.210938 -1.019531 18.28125 -0.800781 18.28125 -0.59375 C 18.28125 -0.3125 18.164062 -0.0859375 17.9375 0.078125 C 17.707031 0.253906 17.394531 0.34375 17 0.34375 C 16.488281 0.34375 16.078125 0.242188 15.765625 0.046875 C 15.453125 -0.148438 15.171875 -0.46875 14.921875 -0.90625 L 9.296875 -10.515625 L 5.546875 -10.515625 L 5.546875 -1.046875 C 5.546875 -0.578125 5.398438 -0.226562 5.109375 0 C 4.828125 0.226562 4.488281 0.34375 4.09375 0.34375 C 3.695312 0.34375 3.347656 0.226562 3.046875 0 C 2.753906 -0.226562 2.609375 -0.578125 2.609375 -1.046875 L 2.609375 -22.140625 C 2.609375 -22.878906 2.78125 -23.421875 3.125 -23.765625 C 3.46875 -24.117188 4.101562 -24.296875 5.03125 -24.296875 L 10.171875 -24.296875 C 12.671875 -24.296875 14.5625 -23.707031 15.84375 -22.53125 C 17.125 -21.363281 17.765625 -19.695312 17.765625 -17.53125 Z M 5.546875 -21.6875 L 5.546875 -13.125 L 10.171875 -13.125 C 11.742188 -13.125 12.910156 -13.453125 13.671875 -14.109375 C 14.429688 -14.765625 14.8125 -15.878906 14.8125 -17.453125 C 14.8125 -20.273438 13.265625 -21.6875 10.171875 -21.6875 Z M 5.546875 -21.6875 "/></g></g></g><g fill="#0b5079" fill-opacity="1"><g transform="translate(273.313986, 156.978755)"><g><path d="M 19.15625 -12.765625 C 20.195312 -12.765625 20.898438 -12.539062 21.265625 -12.09375 C 21.640625 -11.644531 21.828125 -10.957031 21.828125 -10.03125 C 21.828125 -8.289062 21.597656 -6.765625 21.140625 -5.453125 C 20.691406 -4.148438 20.050781 -3.070312 19.21875 -2.21875 C 18.382812 -1.363281 17.382812 -0.722656 16.21875 -0.296875 C 15.050781 0.128906 13.75 0.34375 12.3125 0.34375 C 10.925781 0.34375 9.613281 0.140625 8.375 -0.265625 C 7.144531 -0.671875 6.0625 -1.351562 5.125 -2.3125 C 4.1875 -3.269531 3.441406 -4.546875 2.890625 -6.140625 C 2.347656 -7.734375 2.078125 -9.722656 2.078125 -12.109375 C 2.078125 -14.492188 2.351562 -16.484375 2.90625 -18.078125 C 3.46875 -19.671875 4.226562 -20.953125 5.1875 -21.921875 C 6.144531 -22.898438 7.25 -23.597656 8.5 -24.015625 C 9.75 -24.429688 11.066406 -24.640625 12.453125 -24.640625 C 13.609375 -24.640625 14.660156 -24.476562 15.609375 -24.15625 C 16.566406 -23.832031 17.414062 -23.414062 18.15625 -22.90625 C 18.894531 -22.394531 19.507812 -21.835938 20 -21.234375 C 20.5 -20.640625 20.863281 -20.0625 21.09375 -19.5 C 21.257812 -19.101562 21.34375 -18.734375 21.34375 -18.390625 C 21.34375 -17.992188 21.222656 -17.648438 20.984375 -17.359375 C 20.753906 -17.078125 20.410156 -16.9375 19.953125 -16.9375 C 19.628906 -16.9375 19.351562 -17.023438 19.125 -17.203125 C 18.894531 -17.390625 18.660156 -17.75 18.421875 -18.28125 C 17.847656 -19.601562 17.023438 -20.554688 15.953125 -21.140625 C 14.890625 -21.734375 13.722656 -22.03125 12.453125 -22.03125 C 11.460938 -22.03125 10.519531 -21.878906 9.625 -21.578125 C 8.738281 -21.285156 7.953125 -20.753906 7.265625 -19.984375 C 6.585938 -19.222656 6.046875 -18.207031 5.640625 -16.9375 C 5.234375 -15.664062 5.03125 -14.054688 5.03125 -12.109375 C 5.03125 -10.171875 5.226562 -8.5625 5.625 -7.28125 C 6.019531 -6.007812 6.546875 -5 7.203125 -4.25 C 7.859375 -3.5 8.625 -2.976562 9.5 -2.6875 C 10.382812 -2.394531 11.320312 -2.25 12.3125 -2.25 C 13.289062 -2.25 14.175781 -2.390625 14.96875 -2.671875 C 15.769531 -2.953125 16.457031 -3.394531 17.03125 -4 C 17.613281 -4.613281 18.066406 -5.410156 18.390625 -6.390625 C 18.710938 -7.378906 18.875 -8.59375 18.875 -10.03125 L 18.875 -10.171875 L 12.734375 -10.171875 C 11.828125 -10.171875 11.375 -10.597656 11.375 -11.453125 C 11.375 -11.847656 11.484375 -12.164062 11.703125 -12.40625 C 11.929688 -12.644531 12.273438 -12.765625 12.734375 -12.765625 Z M 19.15625 -12.765625 "/></g></g></g><g fill="#0b5079" fill-opacity="1"><g transform="translate(297.221734, 156.978755)"><g><path d="M 11.421875 -1.046875 C 11.421875 -0.578125 11.273438 -0.226562 10.984375 0 C 10.691406 0.226562 10.347656 0.34375 9.953125 0.34375 C 9.566406 0.34375 9.222656 0.226562 8.921875 0 C 8.617188 -0.226562 8.46875 -0.578125 8.46875 -1.046875 L 8.46875 -10.234375 L 1.3125 -22.625 C 1.132812 -22.96875 1.046875 -23.28125 1.046875 -23.5625 C 1.046875 -24.28125 1.445312 -24.640625 2.25 -24.640625 C 2.738281 -24.640625 3.132812 -24.53125 3.4375 -24.3125 C 3.738281 -24.09375 4.039062 -23.726562 4.34375 -23.21875 L 9.921875 -13.53125 L 15.546875 -23.21875 C 15.847656 -23.726562 16.148438 -24.09375 16.453125 -24.3125 C 16.753906 -24.53125 17.144531 -24.640625 17.625 -24.640625 C 18.4375 -24.640625 18.84375 -24.28125 18.84375 -23.5625 C 18.84375 -23.28125 18.75 -22.96875 18.5625 -22.625 L 11.421875 -10.234375 Z M 11.421875 -1.046875 "/></g></g></g></svg>