<svg xmlns="http://www.w3.org/2000/svg" xmlns:xlink="http://www.w3.org/1999/xlink" width="500" zoomAndPan="magnify" viewBox="0 0 375 225" height="300" preserveAspectRatio="xMidYMid meet" version="1.0"><defs><g/><clipPath id="145d0654f3"><path d="M 128.570312 60.621094 L 225 60.621094 L 225 159.738281 L 128.570312 159.738281 Z M 128.570312 60.621094 " clip-rule="nonzero"/></clipPath></defs><g fill="#000000" fill-opacity="1"><g transform="translate(3.204925, 142.406863)"><g><path d="M 36.015625 -67.1875 C 39.742188 -67.1875 43.429688 -66.757812 47.078125 -65.90625 C 50.722656 -65.0625 53.4375 -64.21875 55.21875 -63.375 L 57.90625 -62.09375 L 50.515625 -47.34375 C 45.429688 -50.050781 40.597656 -51.40625 36.015625 -51.40625 C 33.460938 -51.40625 31.65625 -51.128906 30.59375 -50.578125 C 29.539062 -50.023438 29.015625 -48.988281 29.015625 -47.46875 C 29.015625 -47.125 29.054688 -46.78125 29.140625 -46.4375 C 29.222656 -46.101562 29.390625 -45.785156 29.640625 -45.484375 C 29.898438 -45.191406 30.132812 -44.9375 30.34375 -44.71875 C 30.5625 -44.507812 30.921875 -44.273438 31.421875 -44.015625 C 31.929688 -43.765625 32.332031 -43.578125 32.625 -43.453125 C 32.925781 -43.328125 33.414062 -43.132812 34.09375 -42.875 C 34.78125 -42.625 35.289062 -42.4375 35.625 -42.3125 C 35.96875 -42.1875 36.539062 -41.992188 37.34375 -41.734375 C 38.15625 -41.484375 38.769531 -41.316406 39.1875 -41.234375 C 41.820312 -40.460938 44.113281 -39.609375 46.0625 -38.671875 C 48.007812 -37.742188 50.066406 -36.472656 52.234375 -34.859375 C 54.398438 -33.253906 56.078125 -31.21875 57.265625 -28.75 C 58.453125 -26.289062 59.046875 -23.492188 59.046875 -20.359375 C 59.046875 -5.515625 48.738281 1.90625 28.125 1.90625 C 23.457031 1.90625 19.023438 1.1875 14.828125 -0.25 C 10.628906 -1.695312 7.59375 -3.140625 5.71875 -4.578125 L 2.921875 -6.875 L 12.09375 -22.265625 C 12.769531 -21.671875 13.660156 -20.96875 14.765625 -20.15625 C 15.867188 -19.351562 17.859375 -18.253906 20.734375 -16.859375 C 23.617188 -15.460938 26.125 -14.765625 28.25 -14.765625 C 32.914062 -14.765625 35.25 -16.332031 35.25 -19.46875 C 35.25 -20.90625 34.65625 -22.023438 33.46875 -22.828125 C 32.28125 -23.640625 30.265625 -24.554688 27.421875 -25.578125 C 24.578125 -26.597656 22.347656 -27.53125 20.734375 -28.375 C 16.671875 -30.5 13.445312 -32.894531 11.0625 -35.5625 C 8.6875 -38.238281 7.5 -41.78125 7.5 -46.1875 C 7.5 -52.8125 10.066406 -57.96875 15.203125 -61.65625 C 20.335938 -65.34375 27.273438 -67.1875 36.015625 -67.1875 Z M 36.015625 -67.1875 "/></g></g></g><g fill="#000000" fill-opacity="1"><g transform="translate(55.883681, 142.406863)"><g><path d="M 74.8125 -57.1875 C 80.925781 -50.53125 83.984375 -42.367188 83.984375 -32.703125 C 83.984375 -23.035156 80.925781 -14.847656 74.8125 -8.140625 C 68.707031 -1.441406 60.945312 1.90625 51.53125 1.90625 C 42.882812 1.90625 35.757812 -0.804688 30.15625 -6.234375 L 30.15625 33.078125 L 7.640625 33.078125 L 7.640625 -65.28125 L 29.90625 -65.28125 L 29.90625 -57.90625 L 30.15625 -57.90625 C 35.757812 -64.09375 42.882812 -67.1875 51.53125 -67.1875 C 60.945312 -67.1875 68.707031 -63.851562 74.8125 -57.1875 Z M 55.671875 -21.625 C 58.597656 -24.507812 60.0625 -28.203125 60.0625 -32.703125 C 60.0625 -37.203125 58.660156 -40.867188 55.859375 -43.703125 C 53.054688 -46.546875 49.367188 -47.96875 44.796875 -47.96875 C 40.378906 -47.96875 36.75 -46.523438 33.90625 -43.640625 C 31.070312 -40.753906 29.65625 -37.109375 29.65625 -32.703125 C 29.65625 -28.203125 31.113281 -24.507812 34.03125 -21.625 C 36.957031 -18.75 40.546875 -17.3125 44.796875 -17.3125 C 49.117188 -17.3125 52.742188 -18.75 55.671875 -21.625 Z M 55.671875 -21.625 "/></g></g></g><g fill="#000000" fill-opacity="1"><g transform="translate(132.866464, 142.406863)"><g><path d="M 12.078125 -8.078125 C 5.972656 -14.734375 2.921875 -22.894531 2.921875 -32.5625 C 2.921875 -42.238281 5.972656 -50.425781 12.078125 -57.125 C 18.191406 -63.832031 25.957031 -67.1875 35.375 -67.1875 C 44.03125 -67.1875 51.15625 -64.472656 56.75 -59.046875 L 56.75 -65.28125 L 79.28125 -65.28125 L 79.28125 0 L 57.015625 0 L 57.015625 -7.375 L 56.75 -7.375 C 51.15625 -1.1875 44.03125 1.90625 35.375 1.90625 C 25.957031 1.90625 18.191406 -1.421875 12.078125 -8.078125 Z M 31.234375 -43.640625 C 28.304688 -40.753906 26.84375 -37.0625 26.84375 -32.5625 C 26.84375 -28.070312 28.242188 -24.40625 31.046875 -21.5625 C 33.847656 -18.726562 37.539062 -17.3125 42.125 -17.3125 C 46.53125 -17.3125 50.15625 -18.75 53 -21.625 C 55.84375 -24.507812 57.265625 -28.160156 57.265625 -32.578125 C 57.265625 -37.066406 55.800781 -40.753906 52.875 -43.640625 C 49.945312 -46.523438 46.363281 -47.96875 42.125 -47.96875 C 37.789062 -47.96875 34.160156 -46.523438 31.234375 -43.640625 Z M 31.234375 -43.640625 "/></g></g></g><g fill="#000000" fill-opacity="1"><g transform="translate(209.849248, 142.406863)"><g><path d="M 7.640625 0 L 7.640625 -65.28125 L 30.15625 -65.28125 L 30.15625 -55.859375 L 30.40625 -55.859375 C 30.582031 -56.203125 30.859375 -56.628906 31.234375 -57.140625 C 31.617188 -57.648438 32.445312 -58.539062 33.71875 -59.8125 C 34.988281 -61.082031 36.34375 -62.222656 37.78125 -63.234375 C 39.226562 -64.253906 41.097656 -65.164062 43.390625 -65.96875 C 45.679688 -66.78125 48.015625 -67.1875 50.390625 -67.1875 C 52.847656 -67.1875 55.265625 -66.847656 57.640625 -66.171875 C 60.015625 -65.492188 61.753906 -64.816406 62.859375 -64.140625 L 64.640625 -63.109375 L 55.21875 -44.03125 C 52.425781 -46.40625 48.523438 -47.59375 43.515625 -47.59375 C 40.804688 -47.59375 38.472656 -47 36.515625 -45.8125 C 34.566406 -44.625 33.1875 -43.179688 32.375 -41.484375 C 31.570312 -39.785156 31 -38.34375 30.65625 -37.15625 C 30.320312 -35.96875 30.15625 -35.035156 30.15625 -34.359375 L 30.15625 0 Z M 7.640625 0 "/></g></g></g><g fill="#000000" fill-opacity="1"><g transform="translate(263.291486, 142.406863)"><g><path d="M 82.203125 -65.28125 L 51.15625 -34.109375 L 85.25 0 L 56.25 0 L 30.15625 -26.09375 L 30.15625 0 L 7.640625 0 L 7.640625 -109.4375 L 30.15625 -109.4375 L 30.15625 -42.5 L 52.9375 -65.28125 Z M 82.203125 -65.28125 "/></g></g></g><g fill="#000000" fill-opacity="1"><g transform="translate(335.566149, 142.406863)"><g><path d="M 22.140625 -27.234375 C 26.210938 -27.234375 29.671875 -25.8125 32.515625 -22.96875 C 35.359375 -20.125 36.78125 -16.664062 36.78125 -12.59375 C 36.78125 -8.601562 35.359375 -5.1875 32.515625 -2.34375 C 29.671875 0.488281 26.210938 1.90625 22.140625 1.90625 C 18.148438 1.90625 14.734375 0.488281 11.890625 -2.34375 C 9.054688 -5.1875 7.640625 -8.601562 7.640625 -12.59375 C 7.640625 -16.664062 9.054688 -20.125 11.890625 -22.96875 C 14.734375 -25.8125 18.148438 -27.234375 22.140625 -27.234375 Z M 22.140625 -27.234375 "/></g></g></g><g clip-path="url(#145d0654f3)"><path fill="#ffffff" d="M 224.980469 109.363281 L 210.761719 109.363281 C 186.421875 104.09375 181.007812 98.664062 175.742188 74.285156 L 175.742188 60.625 L 173.941406 60.625 L 173.941406 74.429688 C 168.683594 98.6875 163.246094 104.105469 138.953125 109.363281 L 128.582031 109.363281 L 128.582031 111.160156 L 138.953125 111.160156 C 163.246094 116.417969 168.683594 121.839844 173.941406 146.09375 L 173.941406 159.648438 L 175.742188 159.648438 L 175.742188 146.238281 C 181.007812 121.859375 186.421875 116.429688 210.761719 111.160156 L 224.980469 111.160156 Z M 224.980469 109.363281 " fill-opacity="1" fill-rule="nonzero"/></g></svg>