<svg xmlns="http://www.w3.org/2000/svg" xmlns:xlink="http://www.w3.org/1999/xlink" width="500" zoomAndPan="magnify" viewBox="0 0 375 225" height="300" preserveAspectRatio="xMidYMid meet" version="1.0"><defs><g/><clipPath id="8e5c68d970"><path d="M 81.230469 0 L 266 0 L 266 225 L 81.230469 225 Z M 81.230469 0 " clip-rule="nonzero"/></clipPath><clipPath id="3c719412d9"><path d="M 158 22 L 305.3125 22 L 305.3125 203 L 158 203 Z M 158 22 " clip-rule="nonzero"/></clipPath><clipPath id="ebd631e736"><path d="M 71.949219 84.65625 L 314.945312 84.65625 L 314.945312 151.484375 L 71.949219 151.484375 Z M 71.949219 84.65625 " clip-rule="nonzero"/></clipPath></defs><g clip-path="url(#8e5c68d970)"><path fill="#163b6d" d="M 216.609375 211.75 C 161.890625 211.75 117.535156 167.316406 117.535156 112.507812 C 117.535156 57.699219 161.890625 13.265625 216.609375 13.265625 C 234.363281 13.265625 251.015625 17.96875 265.425781 26.164062 C 245.941406 9.859375 220.863281 0.0351562 193.492188 0.0351562 C 131.480469 0.0351562 81.207031 50.390625 81.207031 112.507812 C 81.207031 174.625 131.480469 224.980469 193.492188 224.980469 C 220.863281 224.980469 245.941406 215.15625 265.425781 198.851562 C 251.015625 207.046875 234.363281 211.75 216.609375 211.75 " fill-opacity="1" fill-rule="nonzero"/></g><g clip-path="url(#3c719412d9)"><path fill="#4f4c4c" d="M 197.140625 191.761719 C 240.835938 191.761719 276.261719 156.277344 276.261719 112.507812 C 276.261719 68.738281 240.835938 33.253906 197.140625 33.253906 C 182.964844 33.253906 169.664062 37.011719 158.15625 43.550781 C 173.714844 30.53125 193.742188 22.6875 215.601562 22.6875 C 265.125 22.6875 305.269531 62.902344 305.269531 112.507812 C 305.269531 162.113281 265.125 202.328125 215.601562 202.328125 C 193.742188 202.328125 173.714844 194.484375 158.15625 181.460938 C 169.664062 188.003906 182.964844 191.761719 197.140625 191.761719 " fill-opacity="1" fill-rule="nonzero"/></g><g clip-path="url(#ebd631e736)"><path fill="#ffffff" d="M 71.949219 84.65625 L 314.972656 84.65625 L 314.972656 151.484375 L 71.949219 151.484375 Z M 71.949219 84.65625 " fill-opacity="1" fill-rule="nonzero"/></g><g fill="#163b6d" fill-opacity="1"><g transform="translate(75.476354, 133.25772)"><g><path d="M 2.46875 -0.453125 C 3.25 -0.453125 3.914062 -0.726562 4.46875 -1.28125 C 5.03125 -1.832031 5.328125 -2.5 5.359375 -3.28125 L 5.359375 -28.25 C 5.328125 -29.03125 5.03125 -29.691406 4.46875 -30.234375 C 3.914062 -30.773438 3.25 -31.046875 2.46875 -31.046875 L 1.890625 -31.046875 L 1.890625 -31.484375 L 15.5625 -31.484375 L 15.515625 -31.046875 L 14.984375 -31.046875 C 14.203125 -31.046875 13.523438 -30.773438 12.953125 -30.234375 C 12.378906 -29.691406 12.09375 -29.03125 12.09375 -28.25 L 12.09375 -3.28125 C 12.09375 -2.5 12.378906 -1.832031 12.953125 -1.28125 C 13.523438 -0.726562 14.203125 -0.453125 14.984375 -0.453125 L 15.515625 -0.453125 L 15.5625 0 L 1.890625 0 L 1.890625 -0.453125 Z M 2.46875 -0.453125 "/></g></g></g><g fill="#163b6d" fill-opacity="1"><g transform="translate(92.83961, 133.25772)"><g><path d="M 36.75 -31.046875 C 35.695312 -31.046875 34.90625 -30.59375 34.375 -29.6875 C 34.132812 -29.300781 34 -28.851562 33.96875 -28.34375 L 33.96875 -5.125 C 33.96875 -3.113281 34.101562 -1.421875 34.375 -0.046875 L 34.5 0.625 L 34.09375 0.625 L 11.375 -21 L 11.375 -3.15625 C 11.375 -2.40625 11.644531 -1.765625 12.1875 -1.234375 C 12.726562 -0.710938 13.375 -0.453125 14.125 -0.453125 L 14.984375 -0.453125 L 14.984375 0 L 1.34375 0 L 1.34375 -0.453125 L 2.15625 -0.453125 C 2.9375 -0.453125 3.597656 -0.710938 4.140625 -1.234375 C 4.679688 -1.765625 4.953125 -2.414062 4.953125 -3.1875 L 4.953125 -26.546875 C 4.953125 -28.523438 4.816406 -30.171875 4.546875 -31.484375 L 4.453125 -32.15625 L 4.859375 -32.15625 L 27.578125 -10.53125 L 27.578125 -28.296875 C 27.546875 -29.078125 27.257812 -29.726562 26.71875 -30.25 C 26.175781 -30.78125 25.53125 -31.046875 24.78125 -31.046875 L 23.984375 -31.046875 L 23.984375 -31.484375 L 37.609375 -31.484375 L 37.609375 -31.046875 Z M 36.75 -31.046875 "/></g></g></g><g fill="#163b6d" fill-opacity="1"><g transform="translate(131.749492, 133.25772)"><g><path d="M 19.03125 0.625 C 13.90625 0.625 9.789062 -0.847656 6.6875 -3.796875 C 3.582031 -6.753906 2.03125 -10.742188 2.03125 -15.765625 C 2.03125 -20.785156 3.582031 -24.765625 6.6875 -27.703125 C 9.789062 -30.648438 13.992188 -32.125 19.296875 -32.125 C 21.691406 -32.125 24.015625 -31.890625 26.265625 -31.421875 C 28.515625 -30.953125 30.332031 -30.375 31.71875 -29.6875 L 31.796875 -21.953125 L 31.40625 -21.953125 C 30.625 -24.859375 29.285156 -26.960938 27.390625 -28.265625 C 25.503906 -29.578125 23.253906 -30.234375 20.640625 -30.234375 C 17.015625 -30.234375 14.226562 -28.9375 12.28125 -26.34375 C 10.332031 -23.75 9.359375 -20.191406 9.359375 -15.671875 C 9.359375 -11.160156 10.25 -7.628906 12.03125 -5.078125 C 13.8125 -2.535156 16.335938 -1.265625 19.609375 -1.265625 C 21.984375 -1.265625 23.960938 -1.9375 25.546875 -3.28125 C 26.328125 -3.96875 26.898438 -4.78125 27.265625 -5.71875 L 27.265625 -12.59375 C 27.265625 -13.25 27.0625 -13.75 26.65625 -14.09375 C 26.25 -14.445312 25.671875 -14.625 24.921875 -14.625 L 24.203125 -14.625 L 24.203125 -15.0625 L 36.84375 -15.0625 L 36.84375 -14.625 L 36.171875 -14.625 C 35.453125 -14.625 34.894531 -14.445312 34.5 -14.09375 C 34.113281 -13.75 33.921875 -13.25 33.921875 -12.59375 L 33.921875 -5.171875 C 32.742188 -3.640625 30.804688 -2.289062 28.109375 -1.125 C 25.410156 0.0390625 22.382812 0.625 19.03125 0.625 Z M 19.03125 0.625 "/></g></g></g><g fill="#163b6d" fill-opacity="1"><g transform="translate(169.354884, 133.25772)"><g><path d="M 6.984375 -27.703125 C 10.179688 -30.648438 14.488281 -32.125 19.90625 -32.125 C 25.320312 -32.125 29.625 -30.648438 32.8125 -27.703125 C 36.007812 -24.765625 37.609375 -20.773438 37.609375 -15.734375 C 37.609375 -10.703125 36.007812 -6.71875 32.8125 -3.78125 C 29.625 -0.84375 25.320312 0.625 19.90625 0.625 C 14.488281 0.625 10.179688 -0.84375 6.984375 -3.78125 C 3.796875 -6.71875 2.203125 -10.703125 2.203125 -15.734375 C 2.203125 -20.773438 3.796875 -24.765625 6.984375 -27.703125 Z M 12.34375 -5.15625 C 14.1875 -2.5625 16.695312 -1.265625 19.875 -1.265625 C 23.0625 -1.265625 25.582031 -2.5625 27.4375 -5.15625 C 29.300781 -7.75 30.234375 -11.28125 30.234375 -15.75 C 30.234375 -20.21875 29.300781 -23.75 27.4375 -26.34375 C 25.582031 -28.9375 23.0625 -30.234375 19.875 -30.234375 C 16.695312 -30.234375 14.1875 -28.9375 12.34375 -26.34375 C 10.5 -23.75 9.578125 -20.21875 9.578125 -15.75 C 9.578125 -11.28125 10.5 -7.75 12.34375 -5.15625 Z M 12.34375 -5.15625 "/></g></g></g><g fill="#163b6d" fill-opacity="1"><g transform="translate(208.849531, 133.25772)"><g><path d="M 35.53125 -31.046875 L 34.765625 -31.046875 C 34.140625 -31.046875 33.601562 -30.84375 33.15625 -30.4375 C 32.707031 -30.03125 32.46875 -29.523438 32.4375 -28.921875 L 32.4375 -11.375 C 32.4375 -7.6875 31.28125 -4.765625 28.96875 -2.609375 C 26.65625 -0.453125 23.492188 0.625 19.484375 0.625 C 14.742188 0.625 11.113281 -0.429688 8.59375 -2.546875 C 6.070312 -4.660156 4.8125 -7.59375 4.8125 -11.34375 L 4.8125 -28.796875 C 4.78125 -29.691406 4.375 -30.347656 3.59375 -30.765625 C 3.238281 -30.953125 2.847656 -31.046875 2.421875 -31.046875 L 1.703125 -31.046875 L 1.703125 -31.484375 L 14.671875 -31.484375 L 14.671875 -31.046875 L 13.9375 -31.046875 C 13.28125 -31.046875 12.726562 -30.84375 12.28125 -30.4375 C 11.832031 -30.03125 11.59375 -29.507812 11.5625 -28.875 L 11.5625 -11.703125 C 11.5625 -8.515625 12.335938 -5.988281 13.890625 -4.125 C 15.453125 -2.269531 17.597656 -1.34375 20.328125 -1.34375 C 23.054688 -1.34375 25.210938 -2.21875 26.796875 -3.96875 C 28.390625 -5.726562 29.203125 -8.109375 29.234375 -11.109375 L 29.234375 -28.875 C 29.179688 -29.75 28.78125 -30.378906 28.03125 -30.765625 C 27.664062 -30.953125 27.273438 -31.046875 26.859375 -31.046875 L 26.140625 -31.046875 L 26.140625 -31.484375 L 35.53125 -31.484375 Z M 35.53125 -31.046875 "/></g></g></g><g fill="#163b6d" fill-opacity="1"><g transform="translate(245.780175, 133.25772)"><g><path d="M 18.21875 -31.484375 C 23.53125 -31.484375 27.726562 -30.070312 30.8125 -27.25 C 33.90625 -24.4375 35.453125 -20.597656 35.453125 -15.734375 C 35.453125 -10.878906 33.90625 -7.039062 30.8125 -4.21875 C 27.726562 -1.40625 23.53125 0 18.21875 0 L 1.890625 0 L 1.890625 -0.453125 L 2.46875 -0.453125 C 3.25 -0.453125 3.914062 -0.726562 4.46875 -1.28125 C 5.03125 -1.832031 5.328125 -2.5 5.359375 -3.28125 L 5.359375 -28.46875 C 5.359375 -29.195312 5.0625 -29.804688 4.46875 -30.296875 C 3.882812 -30.796875 3.21875 -31.046875 2.46875 -31.046875 L 1.890625 -31.046875 L 1.890625 -31.484375 Z M 17.640625 -1.9375 C 19.796875 -1.9375 21.660156 -2.488281 23.234375 -3.59375 C 24.804688 -4.707031 26.007812 -6.304688 26.84375 -8.390625 C 27.6875 -10.472656 28.109375 -12.742188 28.109375 -15.203125 C 28.109375 -17.660156 27.859375 -19.75 27.359375 -21.46875 C 26.867188 -23.195312 26.175781 -24.660156 25.28125 -25.859375 C 23.414062 -28.347656 20.867188 -29.59375 17.640625 -29.59375 L 12.09375 -29.59375 L 12.09375 -1.9375 Z M 17.640625 -1.9375 "/></g></g></g><g fill="#163b6d" fill-opacity="1"><g transform="translate(283.025696, 133.25772)"><g><path d="M 2.46875 -0.453125 C 3.25 -0.453125 3.914062 -0.726562 4.46875 -1.28125 C 5.03125 -1.832031 5.328125 -2.5 5.359375 -3.28125 L 5.359375 -28.34375 C 5.296875 -29.125 5.066406 -29.691406 4.671875 -30.046875 C 3.953125 -30.710938 3.21875 -31.046875 2.46875 -31.046875 L 1.890625 -31.046875 L 1.890625 -31.484375 L 19.125 -31.484375 C 20.59375 -31.484375 21.804688 -31.59375 22.765625 -31.8125 C 23.722656 -32.039062 24.304688 -32.203125 24.515625 -32.296875 L 24.515625 -24.421875 L 24.0625 -24.46875 L 24.0625 -24.96875 C 24.0625 -26.820312 23.375 -28.140625 22 -28.921875 C 21.332031 -29.316406 20.550781 -29.53125 19.65625 -29.5625 L 12.09375 -29.5625 L 12.09375 -16.46875 L 18.03125 -16.46875 C 19.144531 -16.5 20.0625 -16.878906 20.78125 -17.609375 C 21.5 -18.347656 21.859375 -19.253906 21.859375 -20.328125 L 21.859375 -20.734375 L 22.3125 -20.734375 L 22.3125 -10.34375 L 21.859375 -10.34375 L 21.859375 -10.703125 C 21.859375 -11.816406 21.503906 -12.734375 20.796875 -13.453125 C 20.097656 -14.171875 19.207031 -14.546875 18.125 -14.578125 L 12.09375 -14.578125 L 12.09375 -1.9375 L 18 -1.9375 C 20.1875 -1.9375 22.019531 -2.566406 23.5 -3.828125 C 24.988281 -5.085938 26.09375 -6.867188 26.8125 -9.171875 L 27.265625 -9.171875 L 25.1875 0 L 1.890625 0 L 1.890625 -0.453125 Z M 2.46875 -0.453125 "/></g></g></g><g fill="#4f4c4c" fill-opacity="1"><g transform="translate(146.43712, 157.632805)"><g><path d="M 0.5625 -5.234375 C 0.5625 -6.253906 0.796875 -7.164062 1.265625 -7.96875 C 1.742188 -8.78125 2.390625 -9.414062 3.203125 -9.875 C 4.015625 -10.332031 4.90625 -10.5625 5.875 -10.5625 C 6.988281 -10.5625 7.976562 -10.285156 8.84375 -9.734375 C 9.707031 -9.191406 10.332031 -8.421875 10.71875 -7.421875 L 8.671875 -7.421875 C 8.398438 -7.972656 8.023438 -8.382812 7.546875 -8.65625 C 7.066406 -8.925781 6.507812 -9.0625 5.875 -9.0625 C 5.1875 -9.0625 4.570312 -8.90625 4.03125 -8.59375 C 3.488281 -8.28125 3.066406 -7.832031 2.765625 -7.25 C 2.460938 -6.675781 2.3125 -6.003906 2.3125 -5.234375 C 2.3125 -4.460938 2.460938 -3.785156 2.765625 -3.203125 C 3.066406 -2.628906 3.488281 -2.179688 4.03125 -1.859375 C 4.570312 -1.546875 5.1875 -1.390625 5.875 -1.390625 C 6.507812 -1.390625 7.066406 -1.523438 7.546875 -1.796875 C 8.023438 -2.066406 8.398438 -2.476562 8.671875 -3.03125 L 10.71875 -3.03125 C 10.332031 -2.03125 9.707031 -1.257812 8.84375 -0.71875 C 7.976562 -0.175781 6.988281 0.09375 5.875 0.09375 C 4.894531 0.09375 4 -0.132812 3.1875 -0.59375 C 2.382812 -1.050781 1.742188 -1.679688 1.265625 -2.484375 C 0.796875 -3.296875 0.5625 -4.210938 0.5625 -5.234375 Z M 0.5625 -5.234375 "/></g></g></g><g fill="#4f4c4c" fill-opacity="1"><g transform="translate(161.057534, 157.632805)"><g><path d="M 5.875 0.109375 C 4.90625 0.109375 4.015625 -0.117188 3.203125 -0.578125 C 2.390625 -1.035156 1.742188 -1.671875 1.265625 -2.484375 C 0.796875 -3.296875 0.5625 -4.210938 0.5625 -5.234375 C 0.5625 -6.253906 0.796875 -7.164062 1.265625 -7.96875 C 1.742188 -8.78125 2.390625 -9.414062 3.203125 -9.875 C 4.015625 -10.332031 4.90625 -10.5625 5.875 -10.5625 C 6.851562 -10.5625 7.75 -10.332031 8.5625 -9.875 C 9.382812 -9.414062 10.03125 -8.78125 10.5 -7.96875 C 10.96875 -7.164062 11.203125 -6.253906 11.203125 -5.234375 C 11.203125 -4.210938 10.96875 -3.296875 10.5 -2.484375 C 10.03125 -1.671875 9.382812 -1.035156 8.5625 -0.578125 C 7.75 -0.117188 6.851562 0.109375 5.875 0.109375 Z M 5.875 -1.375 C 6.570312 -1.375 7.1875 -1.53125 7.71875 -1.84375 C 8.257812 -2.164062 8.679688 -2.617188 8.984375 -3.203125 C 9.296875 -3.785156 9.453125 -4.460938 9.453125 -5.234375 C 9.453125 -6.003906 9.296875 -6.675781 8.984375 -7.25 C 8.679688 -7.832031 8.257812 -8.28125 7.71875 -8.59375 C 7.1875 -8.90625 6.570312 -9.0625 5.875 -9.0625 C 5.1875 -9.0625 4.570312 -8.90625 4.03125 -8.59375 C 3.488281 -8.28125 3.066406 -7.832031 2.765625 -7.25 C 2.460938 -6.675781 2.3125 -6.003906 2.3125 -5.234375 C 2.3125 -4.460938 2.460938 -3.785156 2.765625 -3.203125 C 3.066406 -2.617188 3.488281 -2.164062 4.03125 -1.84375 C 4.570312 -1.53125 5.1875 -1.375 5.875 -1.375 Z M 5.875 -1.375 "/></g></g></g><g fill="#4f4c4c" fill-opacity="1"><g transform="translate(175.842897, 157.632805)"><g><path d="M 12.109375 -10.421875 L 12.109375 0 L 10.390625 0 L 10.390625 -7.140625 L 7.21875 0 L 6.03125 0 L 2.828125 -7.140625 L 2.828125 0 L 1.125 0 L 1.125 -10.421875 L 2.96875 -10.421875 L 6.625 -2.25 L 10.28125 -10.421875 Z M 12.109375 -10.421875 "/></g></g></g><g fill="#4f4c4c" fill-opacity="1"><g transform="translate(192.097662, 157.632805)"><g><path d="M 8.421875 -7.3125 C 8.421875 -6.789062 8.296875 -6.289062 8.046875 -5.8125 C 7.796875 -5.34375 7.394531 -4.960938 6.84375 -4.671875 C 6.289062 -4.378906 5.582031 -4.234375 4.71875 -4.234375 L 2.828125 -4.234375 L 2.828125 0 L 1.125 0 L 1.125 -10.421875 L 4.71875 -10.421875 C 5.519531 -10.421875 6.195312 -10.28125 6.75 -10 C 7.3125 -9.726562 7.726562 -9.359375 8 -8.890625 C 8.28125 -8.421875 8.421875 -7.894531 8.421875 -7.3125 Z M 4.71875 -5.625 C 5.375 -5.625 5.859375 -5.769531 6.171875 -6.0625 C 6.492188 -6.363281 6.65625 -6.78125 6.65625 -7.3125 C 6.65625 -8.457031 6.007812 -9.03125 4.71875 -9.03125 L 2.828125 -9.03125 L 2.828125 -5.625 Z M 4.71875 -5.625 "/></g></g></g><g fill="#4f4c4c" fill-opacity="1"><g transform="translate(204.049139, 157.632805)"><g><path d="M 7.40625 -2.125 L 3.046875 -2.125 L 2.296875 0 L 0.515625 0 L 4.25 -10.4375 L 6.21875 -10.4375 L 9.953125 0 L 8.15625 0 Z M 6.9375 -3.53125 L 5.234375 -8.375 L 3.53125 -3.53125 Z M 6.9375 -3.53125 "/></g></g></g><g fill="#4f4c4c" fill-opacity="1"><g transform="translate(217.530015, 157.632805)"><g><path d="M 9.6875 0 L 7.984375 0 L 2.828125 -7.78125 L 2.828125 0 L 1.125 0 L 1.125 -10.4375 L 2.828125 -10.4375 L 7.984375 -2.671875 L 7.984375 -10.4375 L 9.6875 -10.4375 Z M 9.6875 0 "/></g></g></g><g fill="#4f4c4c" fill-opacity="1"><g transform="translate(231.370745, 157.632805)"><g><path d="M 8.84375 -10.421875 L 5.40625 -3.78125 L 5.40625 0 L 3.6875 0 L 3.6875 -3.78125 L 0.21875 -10.421875 L 2.125 -10.421875 L 4.546875 -5.3125 L 6.953125 -10.421875 Z M 8.84375 -10.421875 "/></g></g></g></svg>