<svg xmlns="http://www.w3.org/2000/svg" xmlns:xlink="http://www.w3.org/1999/xlink" width="500" zoomAndPan="magnify" viewBox="0 0 375 225" height="300" preserveAspectRatio="xMidYMid meet" version="1.0"><defs><g/></defs><g fill="#3d3d3d" fill-opacity="1"><g transform="translate(3.582175, 140.341438)"><g><path d="M 39.546875 2.328125 C 32.148438 2.328125 25.695312 0.851562 20.1875 -2.09375 C 14.6875 -5.050781 10.410156 -9.1875 7.359375 -14.5 C 4.316406 -19.820312 2.796875 -26.054688 2.796875 -33.203125 C 2.796875 -40.347656 4.316406 -46.578125 7.359375 -51.890625 C 10.410156 -57.210938 14.6875 -61.347656 20.1875 -64.296875 C 25.695312 -67.253906 32.148438 -68.734375 39.546875 -68.734375 C 47.003906 -68.734375 53.484375 -67.253906 58.984375 -64.296875 C 64.492188 -61.347656 68.769531 -57.210938 71.8125 -51.890625 C 74.863281 -46.578125 76.390625 -40.347656 76.390625 -33.203125 C 76.390625 -26.054688 74.863281 -19.820312 71.8125 -14.5 C 68.769531 -9.1875 64.492188 -5.050781 58.984375 -2.09375 C 53.484375 0.851562 47.003906 2.328125 39.546875 2.328125 Z M 39.546875 -11.375 C 43.773438 -11.375 47.457031 -12.273438 50.59375 -14.078125 C 53.738281 -15.878906 56.164062 -18.425781 57.875 -21.71875 C 59.582031 -25.019531 60.4375 -28.847656 60.4375 -33.203125 C 60.4375 -37.617188 59.582031 -41.472656 57.875 -44.765625 C 56.164062 -48.054688 53.738281 -50.601562 50.59375 -52.40625 C 47.457031 -54.21875 43.773438 -55.125 39.546875 -55.125 C 35.378906 -55.125 31.722656 -54.21875 28.578125 -52.40625 C 25.441406 -50.601562 23.019531 -48.054688 21.3125 -44.765625 C 19.601562 -41.472656 18.75 -37.617188 18.75 -33.203125 C 18.75 -28.847656 19.601562 -25.019531 21.3125 -21.71875 C 23.019531 -18.425781 25.441406 -15.878906 28.578125 -14.078125 C 31.722656 -12.273438 35.378906 -11.375 39.546875 -11.375 Z M 39.546875 -11.375 "/></g></g></g><g fill="#3d3d3d" fill-opacity="1"><g transform="translate(80.698766, 140.341438)"><g><path d="M 30.78125 -49.25 C 34.945312 -49.25 38.363281 -47.800781 41.03125 -44.90625 C 43.707031 -42.019531 45.328125 -37.898438 45.890625 -32.546875 L 33.859375 -29.28125 C 33.609375 -32.207031 32.84375 -34.476562 31.5625 -36.09375 C 30.289062 -37.707031 28.628906 -38.515625 26.578125 -38.515625 C 23.898438 -38.515625 21.800781 -37.410156 20.28125 -35.203125 C 18.757812 -32.992188 18 -29.929688 18 -26.015625 L 18 0 L 3.734375 0 L 3.734375 -47.75 L 15.109375 -47.75 L 17.25 -40.015625 L 17.34375 -40.015625 C 18.65625 -42.929688 20.488281 -45.195312 22.84375 -46.8125 C 25.207031 -48.4375 27.851562 -49.25 30.78125 -49.25 Z M 30.78125 -49.25 "/></g></g></g><g fill="#3d3d3d" fill-opacity="1"><g transform="translate(125.92413, 140.341438)"><g><path d="M 24.71875 21.453125 C 19.800781 21.453125 15.085938 20.640625 10.578125 19.015625 C 6.078125 17.398438 2.519531 15.257812 -0.09375 12.59375 L 4.84375 1.953125 C 6.957031 4.253906 9.691406 6.101562 13.046875 7.5 C 16.410156 8.90625 19.894531 9.609375 23.5 9.609375 C 28.414062 9.609375 32.332031 8.285156 35.25 5.640625 C 38.175781 2.992188 39.640625 -0.59375 39.640625 -5.125 L 39.640625 -8.953125 L 39.546875 -8.953125 C 37.929688 -6.273438 35.613281 -4.144531 32.59375 -2.5625 C 29.582031 -0.976562 26.425781 -0.1875 23.125 -0.1875 C 18.894531 -0.1875 15.210938 -1.195312 12.078125 -3.21875 C 8.941406 -5.238281 6.5 -8.066406 4.75 -11.703125 C 3.007812 -15.335938 2.140625 -19.613281 2.140625 -24.53125 C 2.140625 -29.5 2.992188 -33.816406 4.703125 -37.484375 C 6.421875 -41.160156 8.816406 -44.007812 11.890625 -46.03125 C 14.972656 -48.050781 18.5625 -49.0625 22.65625 -49.0625 C 26.207031 -49.0625 29.535156 -48.113281 32.640625 -46.21875 C 35.753906 -44.320312 38.085938 -41.816406 39.640625 -38.703125 L 39.734375 -38.703125 L 41.875 -47.75 L 53.90625 -47.75 L 53.90625 -4.65625 C 53.90625 0.625 52.707031 5.222656 50.3125 9.140625 C 47.914062 13.054688 44.523438 16.085938 40.140625 18.234375 C 35.765625 20.378906 30.625 21.453125 24.71875 21.453125 Z M 28.265625 -11.75 C 31.867188 -11.75 34.757812 -12.945312 36.9375 -15.34375 C 39.113281 -17.738281 40.203125 -20.800781 40.203125 -24.53125 C 40.203125 -28.320312 39.113281 -31.445312 36.9375 -33.90625 C 34.757812 -36.363281 31.867188 -37.59375 28.265625 -37.59375 C 24.710938 -37.59375 21.832031 -36.394531 19.625 -34 C 17.425781 -31.601562 16.328125 -28.445312 16.328125 -24.53125 C 16.328125 -20.738281 17.425781 -17.660156 19.625 -15.296875 C 21.832031 -12.929688 24.710938 -11.75 28.265625 -11.75 Z M 28.265625 -11.75 "/></g></g></g><g fill="#3d3d3d" fill-opacity="1"><g transform="translate(181.500163, 140.341438)"><g><path d="M 18.46875 1.40625 C 13.488281 1.40625 9.398438 0.160156 6.203125 -2.328125 C 3.003906 -4.816406 1.40625 -8.113281 1.40625 -12.21875 C 1.40625 -16.320312 3.175781 -19.769531 6.71875 -22.5625 C 10.257812 -25.363281 15.601562 -27.140625 22.75 -27.890625 L 31.984375 -29 C 33.109375 -29.125 34.007812 -29.484375 34.6875 -30.078125 C 35.375 -30.671875 35.71875 -31.460938 35.71875 -32.453125 C 35.71875 -34.503906 34.910156 -36.148438 33.296875 -37.390625 C 31.679688 -38.640625 29.597656 -39.265625 27.046875 -39.265625 C 24.179688 -39.265625 21.816406 -38.378906 19.953125 -36.609375 C 18.085938 -34.835938 17.03125 -32.769531 16.78125 -30.40625 L 2.890625 -32.546875 C 3.203125 -35.847656 4.367188 -38.785156 6.390625 -41.359375 C 8.410156 -43.941406 11.160156 -45.960938 14.640625 -47.421875 C 18.117188 -48.890625 22.128906 -49.625 26.671875 -49.625 C 33.703125 -49.625 39.296875 -47.894531 43.453125 -44.4375 C 47.617188 -40.988281 49.703125 -36.28125 49.703125 -30.3125 L 49.703125 -11.84375 C 49.703125 -9.539062 50.515625 -8.390625 52.140625 -8.390625 C 53.503906 -8.390625 54.742188 -9.101562 55.859375 -10.53125 L 59.21875 -2.984375 C 57.789062 -1.554688 55.941406 -0.46875 53.671875 0.28125 C 51.398438 1.03125 49.175781 1.40625 47 1.40625 C 44.144531 1.40625 41.691406 0.628906 39.640625 -0.921875 C 37.585938 -2.484375 36.40625 -4.351562 36.09375 -6.53125 L 35.90625 -8.203125 L 35.8125 -8.203125 C 34.257812 -5.347656 31.988281 -3.03125 29 -1.25 C 26.019531 0.519531 22.507812 1.40625 18.46875 1.40625 Z M 23.875 -8.390625 C 27.226562 -8.390625 29.992188 -9.429688 32.171875 -11.515625 C 34.347656 -13.597656 35.4375 -16.257812 35.4375 -19.5 L 35.4375 -21.453125 L 26.296875 -20.421875 C 22.316406 -19.984375 19.550781 -19.175781 18 -18 C 16.445312 -16.820312 15.671875 -15.453125 15.671875 -13.890625 C 15.671875 -12.273438 16.445312 -10.953125 18 -9.921875 C 19.550781 -8.898438 21.507812 -8.390625 23.875 -8.390625 Z M 23.875 -8.390625 "/></g></g></g><g fill="#3d3d3d" fill-opacity="1"><g transform="translate(238.661425, 140.341438)"><g><path d="M 34.96875 -49.15625 C 39.882812 -49.15625 43.738281 -47.722656 46.53125 -44.859375 C 49.332031 -42.003906 50.734375 -38.023438 50.734375 -32.921875 L 50.734375 0 L 36.46875 0 L 36.46875 -28.546875 C 36.46875 -31.273438 35.75 -33.414062 34.3125 -34.96875 C 32.882812 -36.53125 30.929688 -37.3125 28.453125 -37.3125 C 25.398438 -37.3125 22.894531 -36.316406 20.9375 -34.328125 C 18.976562 -32.335938 18 -29.691406 18 -26.390625 L 18 0 L 3.734375 0 L 3.734375 -47.75 L 15.765625 -47.75 L 17.90625 -39.078125 L 18 -39.078125 C 19.738281 -42.304688 22.050781 -44.789062 24.9375 -46.53125 C 27.832031 -48.28125 31.175781 -49.15625 34.96875 -49.15625 Z M 34.96875 -49.15625 "/></g></g></g><g fill="#3d3d3d" fill-opacity="1"><g transform="translate(290.787249, 140.341438)"><g><path d="M 11.1875 -54.28125 C 8.707031 -54.28125 6.6875 -55.023438 5.125 -56.515625 C 3.570312 -58.003906 2.796875 -59.960938 2.796875 -62.390625 C 2.796875 -64.878906 3.570312 -66.867188 5.125 -68.359375 C 6.6875 -69.859375 8.707031 -70.609375 11.1875 -70.609375 C 13.738281 -70.609375 15.789062 -69.859375 17.34375 -68.359375 C 18.894531 -66.867188 19.671875 -64.878906 19.671875 -62.390625 C 19.671875 -59.960938 18.894531 -58.003906 17.34375 -56.515625 C 15.789062 -55.023438 13.738281 -54.28125 11.1875 -54.28125 Z M 4.109375 0 L 4.109375 -47.75 L 18.28125 -47.75 L 18.28125 0 Z M 4.109375 0 "/></g></g></g><g fill="#3d3d3d" fill-opacity="1"><g transform="translate(311.208328, 140.341438)"><g><path d="M 27.890625 1.859375 C 22.785156 1.859375 18.289062 0.773438 14.40625 -1.390625 C 10.519531 -3.566406 7.503906 -6.582031 5.359375 -10.4375 C 3.210938 -14.300781 2.140625 -18.78125 2.140625 -23.875 C 2.140625 -28.976562 3.179688 -33.457031 5.265625 -37.3125 C 7.347656 -41.164062 10.269531 -44.179688 14.03125 -46.359375 C 17.789062 -48.535156 22.128906 -49.625 27.046875 -49.625 C 31.085938 -49.625 34.738281 -48.875 38 -47.375 C 41.269531 -45.882812 43.992188 -43.800781 46.171875 -41.125 C 48.347656 -38.457031 49.773438 -35.347656 50.453125 -31.796875 L 37.5 -28.453125 C 37 -31.554688 35.800781 -33.929688 33.90625 -35.578125 C 32.007812 -37.222656 29.847656 -38.046875 27.421875 -38.046875 C 24.179688 -38.046875 21.519531 -36.738281 19.4375 -34.125 C 17.363281 -31.519531 16.328125 -28.101562 16.328125 -23.875 C 16.390625 -19.644531 17.550781 -16.222656 19.8125 -13.609375 C 22.082031 -11.003906 24.929688 -9.703125 28.359375 -9.703125 C 31.335938 -9.703125 33.898438 -10.726562 36.046875 -12.78125 C 38.191406 -14.832031 39.453125 -17.472656 39.828125 -20.703125 L 53.0625 -18.84375 C 52.632812 -14.738281 51.285156 -11.128906 49.015625 -8.015625 C 46.742188 -4.910156 43.785156 -2.488281 40.140625 -0.75 C 36.503906 0.988281 32.421875 1.859375 27.890625 1.859375 Z M 27.890625 1.859375 "/></g></g></g></svg>