<svg xmlns="http://www.w3.org/2000/svg" xmlns:xlink="http://www.w3.org/1999/xlink" width="500" zoomAndPan="magnify" viewBox="0 0 375 225" height="300" preserveAspectRatio="xMidYMid meet" version="1.0"><defs><g/><clipPath id="f7bf73b489"><path d="M 4.011719 27.21875 L 89.128906 27.21875 L 89.128906 211.363281 L 4.011719 211.363281 Z M 4.011719 27.21875 " clip-rule="nonzero"/></clipPath></defs><g fill="#ff914d" fill-opacity="1"><g transform="translate(95.053067, 208.106871)"><g><path d="M 49.921875 1.640625 C 35.671875 1.640625 24.847656 -2.703125 17.453125 -11.390625 C 10.066406 -20.085938 6.375 -32.3125 6.375 -48.0625 L 6.375 -132.09375 C 6.375 -147.289062 10.066406 -158.753906 17.453125 -166.484375 C 24.847656 -174.222656 35.671875 -178.09375 49.921875 -178.09375 C 64.160156 -178.09375 74.976562 -174.222656 82.375 -166.484375 C 89.769531 -158.753906 93.46875 -147.289062 93.46875 -132.09375 L 93.46875 -48.0625 C 93.46875 -32.175781 89.769531 -19.921875 82.375 -11.296875 C 74.976562 -2.671875 64.160156 1.640625 49.921875 1.640625 Z M 49.921875 -30.8125 C 53.066406 -30.8125 55.1875 -32.179688 56.28125 -34.921875 C 57.375 -37.660156 57.921875 -41.492188 57.921875 -46.421875 L 57.921875 -132.703125 C 57.921875 -136.535156 57.40625 -139.648438 56.375 -142.046875 C 55.351562 -144.441406 53.269531 -145.640625 50.125 -145.640625 C 44.238281 -145.640625 41.296875 -141.191406 41.296875 -132.296875 L 41.296875 -46.21875 C 41.296875 -41.15625 41.910156 -37.320312 43.140625 -34.71875 C 44.367188 -32.113281 46.628906 -30.8125 49.921875 -30.8125 Z M 49.921875 -30.8125 "/></g></g></g><g fill="#ff914d" fill-opacity="1"><g transform="translate(194.884703, 208.106871)"><g><path d="M 48.6875 1.640625 C 34.164062 1.640625 23.378906 -2.460938 16.328125 -10.671875 C 9.273438 -18.890625 5.75 -31.082031 5.75 -47.25 L 5.75 -176.453125 L 40.0625 -176.453125 L 40.0625 -48.6875 C 40.0625 -43.070312 40.609375 -38.6875 41.703125 -35.53125 C 42.796875 -32.382812 45.125 -30.8125 48.6875 -30.8125 C 52.25 -30.8125 54.578125 -32.351562 55.671875 -35.4375 C 56.765625 -38.519531 57.3125 -42.9375 57.3125 -48.6875 L 57.3125 -176.453125 L 91.625 -176.453125 L 91.625 -47.25 C 91.625 -31.082031 88.09375 -18.890625 81.03125 -10.671875 C 73.976562 -2.460938 63.195312 1.640625 48.6875 1.640625 Z M 48.6875 1.640625 "/></g></g></g><g fill="#ff914d" fill-opacity="1"><g transform="translate(292.2513, 208.106871)"><g><path d="M 23 0 L 23 -142.5625 L 2.046875 -142.5625 L 2.046875 -176.453125 L 79.296875 -176.453125 L 79.296875 -142.5625 L 58.34375 -142.5625 L 58.34375 0 Z M 23 0 "/></g></g></g><g clip-path="url(#f7bf73b489)"><path fill="#ff914d" d="M 4.011719 27.21875 L 89.128906 27.21875 L 89.128906 211.421875 L 4.011719 211.421875 Z M 4.011719 27.21875 " fill-opacity="1" fill-rule="nonzero"/></g><g fill="#e6e6dd" fill-opacity="1"><g transform="translate(73.241417, 196.514123)"><g><path d="M 0 -2 L -57.0625 -2 L -57.0625 -13.015625 L 0 -13.015625 Z M 0 -2 "/></g></g></g><g fill="#e6e6dd" fill-opacity="1"><g transform="translate(73.241417, 181.435063)"><g><path d="M 0 -2.53125 L -57.0625 -2.53125 L -57.0625 -14.28125 L -29.765625 -19.53125 L -57.0625 -19.53125 L -57.0625 -30.5625 L 0 -30.5625 L 0 -19.40625 L -28.5625 -13.6875 L 0 -13.6875 Z M 0 -2.53125 "/></g></g></g><g fill="#e6e6dd" fill-opacity="1"><g transform="translate(73.241417, 148.354145)"><g><path d="M 0.53125 -16.078125 C 0.53125 -10.890625 -0.75 -7.144531 -3.3125 -4.84375 C -5.882812 -2.539062 -10.03125 -1.390625 -15.75 -1.390625 L -21.328125 -1.390625 L -21.328125 -12.625 L -14.21875 -12.625 C -11.382812 -12.625 -9.96875 -13.53125 -9.96875 -15.34375 C -9.96875 -16.363281 -10.265625 -17.070312 -10.859375 -17.46875 C -11.460938 -17.875 -12.472656 -18.078125 -13.890625 -18.078125 C -15.742188 -18.078125 -17.28125 -17.851562 -18.5 -17.40625 C -19.71875 -16.96875 -20.734375 -16.40625 -21.546875 -15.71875 C -22.367188 -15.03125 -23.644531 -13.800781 -25.375 -12.03125 L -30.296875 -7.109375 C -34.015625 -3.296875 -38.132812 -1.390625 -42.65625 -1.390625 C -47.53125 -1.390625 -51.238281 -2.507812 -53.78125 -4.75 C -56.320312 -6.988281 -57.59375 -10.253906 -57.59375 -14.546875 C -57.59375 -19.679688 -56.226562 -23.378906 -53.5 -25.640625 C -50.78125 -27.898438 -46.519531 -29.03125 -40.71875 -29.03125 L -40.71875 -17.40625 L -44.640625 -17.34375 C -45.398438 -17.34375 -46 -17.128906 -46.4375 -16.703125 C -46.882812 -16.285156 -47.109375 -15.703125 -47.109375 -14.953125 C -47.109375 -14.066406 -46.863281 -13.398438 -46.375 -12.953125 C -45.882812 -12.515625 -45.21875 -12.296875 -44.375 -12.296875 C -42.519531 -12.296875 -40.59375 -13.359375 -38.59375 -15.484375 L -32.21875 -22.125 C -30.71875 -23.675781 -29.289062 -24.957031 -27.9375 -25.96875 C -26.582031 -26.988281 -24.984375 -27.804688 -23.140625 -28.421875 C -21.304688 -29.046875 -19.128906 -29.359375 -16.609375 -29.359375 C -10.984375 -29.359375 -6.71875 -28.328125 -3.8125 -26.265625 C -0.914062 -24.210938 0.53125 -20.816406 0.53125 -16.078125 Z M 0.53125 -16.078125 "/></g></g></g><g fill="#e6e6dd" fill-opacity="1"><g transform="translate(73.241417, 117.731039)"><g><path d="M 0 -2 L -57.0625 -2 L -57.0625 -13.015625 L 0 -13.015625 Z M 0 -2 "/></g></g></g><g fill="#e6e6dd" fill-opacity="1"><g transform="translate(73.241417, 102.651978)"><g><path d="M -57.0625 -2.53125 L -57.0625 -18.265625 C -57.0625 -22.335938 -55.929688 -25.394531 -53.671875 -27.4375 C -51.421875 -29.476562 -48.082031 -30.519531 -43.65625 -30.5625 L -16.9375 -30.6875 C -11.3125 -30.738281 -7.082031 -29.765625 -4.25 -27.765625 C -1.414062 -25.773438 0 -22.476562 0 -17.875 L 0 -2.53125 Z M -10.09375 -16.015625 C -10.09375 -18.097656 -11.113281 -19.140625 -13.15625 -19.140625 L -42.59375 -19.140625 C -43.875 -19.140625 -44.832031 -19.035156 -45.46875 -18.828125 C -46.113281 -18.628906 -46.546875 -18.265625 -46.765625 -17.734375 C -46.992188 -17.203125 -47.109375 -16.382812 -47.109375 -15.28125 L -47.109375 -14.015625 L -10.09375 -14.015625 Z M -10.09375 -16.015625 "/></g></g></g><g fill="#e6e6dd" fill-opacity="1"><g transform="translate(73.241417, 69.903189)"><g><path d="M 0 -2.53125 L -57.0625 -2.53125 L -57.0625 -25.375 L -46.046875 -25.375 L -46.046875 -14.15625 L -34.953125 -14.15625 L -34.953125 -24.90625 L -24.1875 -24.90625 L -24.1875 -14.15625 L -11.09375 -14.15625 L -11.09375 -26.109375 L 0 -26.109375 Z M 0 -2.53125 "/></g></g></g></svg>